<?xml version="1.0" encoding="UTF-8"?>
<svg xmlns="http://www.w3.org/2000/svg" xmlns:xlink="http://www.w3.org/1999/xlink" width="0" height="0">
<symbol id="hamburger"  viewBox="0 -960 960 960"><path d="M120-240v-80h720v80H120Zm0-200v-80h720v80H120Zm0-200v-80h720v80H120Z"/></symbol>
<symbol id="123" stroke-width="1.5" viewBox="0 -960 960 960"><path d="M220-360v-180h-60v-60h120v240h-60Zm140 0v-100q0-17 11.5-28.5T400-500h80v-40H360v-60h140q17 0 28.5 11.5T540-560v60q0 17-11.5 28.5T500-460h-80v40h120v60H360Zm240 0v-60h120v-40h-80v-40h80v-40H600v-60h140q17 0 28.5 11.5T780-560v160q0 17-11.5 28.5T740-360H600Z"/></symbol>
<symbol id="alarm" viewBox="0 -960 960 960" ><path d="M480-80q-75 0-140.5-28.5t-114-77q-48.5-48.5-77-114T120-440q0-75 28.5-140.5t77-114q48.5-48.5 114-77T480-800q75 0 140.5 28.5t114 77q48.5 48.5 77 114T840-440q0 75-28.5 140.5t-77 114q-48.5 48.5-114 77T480-80Zm0-360Zm112 168 56-56-128-128v-184h-80v216l152 152ZM224-866l56 56-170 170-56-56 170-170Zm512 0 170 170-56 56-170-170 56-56ZM480-160q117 0 198.5-81.5T760-440q0-117-81.5-198.5T480-720q-117 0-198.5 81.5T200-440q0 117 81.5 198.5T480-160Z"/></symbol>
<symbol id="arrow_drop_down" viewBox="0 -960 960 960" ><path d="M480-360 280-560h400L480-360Z"/></symbol>
<symbol id="calendar_today" viewBox="0 -960 960 960" ><path d="M200-80q-33 0-56.5-23.5T120-160v-560q0-33 23.5-56.5T200-800h40v-80h80v80h320v-80h80v80h40q33 0 56.5 23.5T840-720v560q0 33-23.5 56.5T760-80H200Zm0-80h560v-400H200v400Zm0-480h560v-80H200v80Zm0 0v-80 80Z"/></symbol>
<symbol id="category" viewBox="0 -960 960 960" ><path d="m260-520 220-360 220 360H260ZM700-80q-75 0-127.5-52.5T520-260q0-75 52.5-127.5T700-440q75 0 127.5 52.5T880-260q0 75-52.5 127.5T700-80Zm-580-20v-320h320v320H120Zm580-60q42 0 71-29t29-71q0-42-29-71t-71-29q-42 0-71 29t-29 71q0 42 29 71t71 29Zm-500-20h160v-160H200v160Zm202-420h156l-78-126-78 126Zm78 0ZM360-340Zm340 80Z"/></symbol>
<symbol id="check_circle" viewBox="0 -960 960 960" ><path d="m424-296 282-282-56-56-226 226-114-114-56 56 170 170Zm56 216q-83 0-156-31.5T197-197q-54-54-85.5-127T80-480q0-83 31.5-156T197-763q54-54 127-85.5T480-880q83 0 156 31.5T763-763q54 54 85.5 127T880-480q0 83-31.5 156T763-197q-54 54-127 85.5T480-80Zm0-80q134 0 227-93t93-227q0-134-93-227t-227-93q-134 0-227 93t-93 227q0 134 93 227t227 93Zm0-320Z"/></symbol>
<symbol id="database_search" viewBox="0 -960 960 960" ><path d="M472-120q-73-1-137.5-13.5t-112-34Q175-189 147.5-218T120-280q0 33 27.5 62t75 50.5q47.5 21.5 112 34T472-120Zm-71-204q-30-3-58-8t-53.5-12q-25.5-7-48-15.5T200-379q19 11 41.5 19.5t48 15.5q25.5 7 53.5 12t58 8Zm79-275q86 0 177.5-26T760-679q-11-29-100.5-55T480-760q-91 0-178.5 25.5T200-679q15 29 104.5 54.5T480-599Zm-61 396q10 23 23 44t30 39q-73-1-137.5-13.5t-112-34Q175-189 147.5-218T120-280v-400q0-33 28.5-62t77.5-51q49-22 114.5-34.5T480-840q74 0 139.5 12.5T734-793q49 22 77.5 51t28.5 62q0 33-28.5 62T734-567q-49 22-114.5 34.5T480-520q-85 0-157-15t-123-44v101q40 37 100 54t121 22q-8 15-13 34.5t-7 43.5q-60-7-111.5-20T200-379v99q14 25 77 47t142 30ZM864-40 756-148q-22 13-46 20.5t-50 7.5q-75 0-127.5-52.5T480-300q0-75 52.5-127.5T660-480q75 0 127.5 52.5T840-300q0 26-7.5 50T812-204L920-96l-56 56ZM660-200q42 0 71-29t29-71q0-42-29-71t-71-29q-42 0-71 29t-29 71q0 42 29 71t71 29Z"/></symbol>
<symbol id="done_outline" viewBox="0 -960 960 960" ><path d="m381-240 424-424-57-56-368 367-169-170-57 57 227 226Zm0 113L42-466l169-170 170 170 366-367 172 168-538 538Z"/></symbol>
<symbol id="egg_alt" viewBox="0 -960 960 960" ><path d="M640-80q-67 0-101.5-22.5T480-150q-19-20-36.5-35T399-200q-45 0-100-15.5t-103.5-51Q147-302 114-359T80-499q-2-167 82.5-274T399-880q71 0 120 20.5t84.5 51.5q35.5 31 60 68.5T710-667q12 20 24 36.5t26 30.5q60 60 90 105t30 136q0 120-74.5 199.5T640-80Zm0-80q57 0 108.5-56.5T800-359q0-66-19.5-97T704-544q-21-20-37.5-44.5T633-639q-41-65-87-113t-147-48q-129 0-185 92.5T160-500q1 67 29 110t66.5 67.5Q294-298 334-289t65 9q51 0 82 24.5t51 45.5q22 23 42.5 36.5T640-160ZM480-340q58 0 99-41t41-99q0-58-41-99t-99-41q-58 0-99 41t-41 99q0 58 41 99t99 41Zm-1-140Z"/></symbol>
<symbol id="event" viewBox="0 -960 960 960" ><path d="M580-240q-42 0-71-29t-29-71q0-42 29-71t71-29q42 0 71 29t29 71q0 42-29 71t-71 29ZM200-80q-33 0-56.5-23.5T120-160v-560q0-33 23.5-56.5T200-800h40v-80h80v80h320v-80h80v80h40q33 0 56.5 23.5T840-720v560q0 33-23.5 56.5T760-80H200Zm0-80h560v-400H200v400Zm0-480h560v-80H200v80Zm0 0v-80 80Z"/></symbol>
<symbol id="event_note" viewBox="0 -960 960 960" ><path d="M200-80q-33 0-56.5-23.5T120-160v-560q0-33 23.5-56.5T200-800h40v-80h80v80h320v-80h80v80h40q33 0 56.5 23.5T840-720v560q0 33-23.5 56.5T760-80H200Zm0-80h560v-400H200v400Zm0-480h560v-80H200v80Zm0 0v-80 80Zm80 240v-80h400v80H280Zm0 160v-80h280v80H280Z"/></symbol>
<symbol id="favorite" viewBox="0 -960 960 960" ><path d="m480-120-58-52q-101-91-167-157T150-447.5Q111-500 95.5-544T80-634q0-94 63-157t157-63q52 0 99 22t81 62q34-40 81-62t99-22q94 0 157 63t63 157q0 46-15.5 90T810-447.5Q771-395 705-329T538-172l-58 52Zm0-108q96-86 158-147.5t98-107q36-45.5 50-81t14-70.5q0-60-40-100t-100-40q-47 0-87 26.5T518-680h-76q-15-41-55-67.5T300-774q-60 0-100 40t-40 100q0 35 14 70.5t50 81q36 45.5 98 107T480-228Zm0-273Z"/></symbol>
<symbol id="filter_list" viewBox="0 -960 960 960" ><path d="M400-240v-80h160v80H400ZM240-440v-80h480v80H240ZM120-640v-80h720v80H120Z"/></symbol>
<symbol id="home" viewBox="0 -960 960 960" ><path d="M240-200h120v-240h240v240h120v-360L480-740 240-560v360Zm-80 80v-480l320-240 320 240v480H520v-240h-80v240H160Zm320-350Z"/></symbol>
<symbol id="hourglass_top" viewBox="0 -960 960 960" ><path d="M320-160h320v-120q0-66-47-113t-113-47q-66 0-113 47t-47 113v120ZM160-80v-80h80v-120q0-61 28.5-114.5T348-480q-51-32-79.5-85.5T240-680v-120h-80v-80h640v80h-80v120q0 61-28.5 114.5T612-480q51 32 79.5 85.5T720-280v120h80v80H160Z"/></symbol>
<symbol id="nutrition" viewBox="0 -960 960 960" ><path d="M480-120q-117 0-198.5-81.5T200-400q0-94 55.5-168.5T401-669q-20-5-39-14.5T328-708q-33-33-42.5-78.5T281-879q47-5 92.5 4.5T452-832q23 23 33.5 52t13.5 61q13-31 31.5-58.5T572-828q11-11 28-11t28 11q11 11 11 28t-11 28q-22 22-39 48.5T564-667q88 28 142 101.5T760-400q0 117-81.5 198.5T480-120Zm0-80q83 0 141.5-58.5T680-400q0-83-58.5-141.5T480-600q-83 0-141.5 58.5T280-400q0 83 58.5 141.5T480-200Zm0-200Z"/></symbol>
<symbol id="radio_button_checked" viewBox="0 -960 960 960" ><path d="M480-280q83 0 141.5-58.5T680-480q0-83-58.5-141.5T480-680q-83 0-141.5 58.5T280-480q0 83 58.5 141.5T480-280Zm0 200q-83 0-156-31.5T197-197q-54-54-85.5-127T80-480q0-83 31.5-156T197-763q54-54 127-85.5T480-880q83 0 156 31.5T763-763q54 54 85.5 127T880-480q0 83-31.5 156T763-197q-54 54-127 85.5T480-80Zm0-80q134 0 227-93t93-227q0-134-93-227t-227-93q-134 0-227 93t-93 227q0 134 93 227t227 93Zm0-320Z"/></symbol>
<symbol id="search" viewBox="0 -960 960 960" ><path d="M784-120 532-372q-30 24-69 38t-83 14q-109 0-184.5-75.5T120-580q0-109 75.5-184.5T380-840q109 0 184.5 75.5T640-580q0 44-14 83t-38 69l252 252-56 56ZM380-400q75 0 127.5-52.5T560-580q0-75-52.5-127.5T380-760q-75 0-127.5 52.5T200-580q0 75 52.5 127.5T380-400Z"/></symbol>
<symbol id="skillet" viewBox="0 -960 960 960" ><path d="M177-560q14-36 4.5-64T149-680q-33-40-43.5-75.5T102-840h78q-8 38-2.5 62t28.5 52q38 46 48.5 81.5t.5 84.5h-78Zm160 0q14-36 5-64t-32-56q-33-40-44-75.5t-4-84.5h78q-8 38-2.5 62t28.5 52q38 46 48.5 81.5t.5 84.5h-78Zm160 0q14-36 5-64t-32-56q-33-40-44-75.5t-4-84.5h78q-8 38-2.5 62t28.5 52q38 46 48.5 81.5t.5 84.5h-78ZM200-160q-50 0-85-35t-35-85v-200h561q5-34 27-59.5t54-36.5l185-62 25 76-185 62q-12 4-19.5 14.5T720-462v182q0 50-35 85t-85 35H200Zm0-80h400q17 0 28.5-11.5T640-280v-120H160v120q0 17 11.5 28.5T200-240Zm200-80Z"/></symbol><symbol id="add_circle" viewBox="0 -960 960 960" stroke-width="1.5" ><path d="M440-280h80v-160h160v-80H520v-160h-80v160H280v80h160v160Zm40 200q-83 0-156-31.5T197-197q-54-54-85.5-127T80-480q0-83 31.5-156T197-763q54-54 127-85.5T480-880q83 0 156 31.5T763-763q54 54 85.5 127T880-480q0 83-31.5 156T763-197q-54 54-127 85.5T480-80Zm0-80q134 0 227-93t93-227q0-134-93-227t-227-93q-134 0-227 93t-93 227q0 134 93 227t227 93Zm0-320Z"/></symbol><symbol id="add_task" viewBox="0 -960 960 960" stroke-width="1.5" ><path d="M480-80q-83 0-156-31.5T197-197q-54-54-85.5-127T80-480q0-83 31.5-156T197-763q54-54 127-85.5T480-880q65 0 123 19t107 53l-58 59q-38-24-81-37.5T480-800q-133 0-226.5 93.5T160-480q0 133 93.5 226.5T480-160q32 0 62-6t58-17l60 61q-41 20-86 31t-94 11Zm280-80v-120H640v-80h120v-120h80v120h120v80H840v120h-80ZM424-296 254-466l56-56 114 114 400-401 56 56-456 457Z"/></symbol><symbol id="assignment_add" viewBox="0 -960 960 960" stroke-width="1.5" ><path d="M200-120q-33 0-56.5-23.5T120-200v-560q0-33 23.5-56.5T200-840h168q13-36 43.5-58t68.5-22q38 0 68.5 22t43.5 58h168q33 0 56.5 23.5T840-760v268q-19-9-39-15.5t-41-9.5v-243H200v560h242q3 22 9.5 42t15.5 38H200Zm0-120v40-560 243-3 280Zm80-40h163q3-21 9.5-41t14.5-39H280v80Zm0-160h244q32-30 71.5-50t84.5-27v-3H280v80Zm0-160h400v-80H280v80Zm200-190q13 0 21.5-8.5T510-820q0-13-8.5-21.5T480-850q-13 0-21.5 8.5T450-820q0 13 8.5 21.5T480-790ZM720-40q-83 0-141.5-58.5T520-240q0-83 58.5-141.5T720-440q83 0 141.5 58.5T920-240q0 83-58.5 141.5T720-40Zm-20-80h40v-100h100v-40H740v-100h-40v100H600v40h100v100Z"/></symbol><symbol id="attach_file" viewBox="0 -960 960 960" stroke-width="1.5" ><path d="M720-330q0 104-73 177T470-80q-104 0-177-73t-73-177v-370q0-75 52.5-127.5T400-880q75 0 127.5 52.5T580-700v350q0 46-32 78t-78 32q-46 0-78-32t-32-78v-370h80v370q0 13 8.5 21.5T470-320q13 0 21.5-8.5T500-350v-350q-1-42-29.5-71T400-800q-42 0-71 29t-29 71v370q-1 71 49 120.5T470-160q70 0 119-49.5T640-330v-390h80v390Z"/></symbol><symbol id="audio_file" viewBox="0 -960 960 960" stroke-width="1.5" ><path d="M430-200q38 0 64-26t26-64v-150h120v-80H480v155q-11-8-23.5-11.5T430-380q-38 0-64 26t-26 64q0 38 26 64t64 26ZM240-80q-33 0-56.5-23.5T160-160v-640q0-33 23.5-56.5T240-880h320l240 240v480q0 33-23.5 56.5T720-80H240Zm280-520v-200H240v640h480v-440H520ZM240-800v200-200 640-640Z"/></symbol><symbol id="check_box_outline_blank" viewBox="0 -960 960 960" stroke-width="1.5" ><path d="M200-120q-33 0-56.5-23.5T120-200v-560q0-33 23.5-56.5T200-840h560q33 0 56.5 23.5T840-760v560q0 33-23.5 56.5T760-120H200Zm0-80h560v-560H200v560Z"/></symbol><symbol id="checklist" viewBox="0 -960 960 960" stroke-width="1.5" ><path d="M222-200 80-342l56-56 85 85 170-170 56 57-225 226Zm0-320L80-662l56-56 85 85 170-170 56 57-225 226Zm298 240v-80h360v80H520Zm0-320v-80h360v80H520Z"/></symbol><symbol id="close" viewBox="0 -960 960 960" stroke-width="1.5" ><path d="m256-200-56-56 224-224-224-224 56-56 224 224 224-224 56 56-224 224 224 224-56 56-224-224-224 224Z"/></symbol><symbol id="delete" viewBox="0 -960 960 960" stroke-width="1.5" ><path d="M280-120q-33 0-56.5-23.5T200-200v-520h-40v-80h200v-40h240v40h200v80h-40v520q0 33-23.5 56.5T680-120H280Zm400-600H280v520h400v-520ZM360-280h80v-360h-80v360Zm160 0h80v-360h-80v360ZM280-720v520-520Z"/></symbol><symbol id="document_search" viewBox="0 -960 960 960" stroke-width="1.5" ><path d="M200-800v241-1 400-640 200-200Zm0 720q-33 0-56.5-23.5T120-160v-640q0-33 23.5-56.5T200-880h320l240 240v100q-19-8-39-12.5t-41-6.5v-41H480v-200H200v640h241q16 24 36 44.5T521-80H200Zm460-120q42 0 71-29t29-71q0-42-29-71t-71-29q-42 0-71 29t-29 71q0 42 29 71t71 29ZM864-40 756-148q-21 14-45.5 21t-50.5 7q-75 0-127.5-52.5T480-300q0-75 52.5-127.5T660-480q75 0 127.5 52.5T840-300q0 26-7 50.5T812-204L920-96l-56 56Z"/></symbol><symbol id="error" viewBox="0 -960 960 960" stroke-width="1.5" ><path d="M480-280q17 0 28.5-11.5T520-320q0-17-11.5-28.5T480-360q-17 0-28.5 11.5T440-320q0 17 11.5 28.5T480-280Zm-40-160h80v-240h-80v240Zm40 360q-83 0-156-31.5T197-197q-54-54-85.5-127T80-480q0-83 31.5-156T197-763q54-54 127-85.5T480-880q83 0 156 31.5T763-763q54 54 85.5 127T880-480q0 83-31.5 156T763-197q-54 54-127 85.5T480-80Zm0-80q134 0 227-93t93-227q0-134-93-227t-227-93q-134 0-227 93t-93 227q0 134 93 227t227 93Zm0-320Z"/></symbol><symbol id="finance" viewBox="0 -960 960 960" stroke-width="1.5" ><path d="M200-120q-33 0-56.5-23.5T120-200v-640h80v640h640v80H200Zm40-120v-360h160v360H240Zm200 0v-560h160v560H440Zm200 0v-200h160v200H640Z"/></symbol><symbol id="fingerprint" viewBox="0 -960 960 960" stroke-width="1.5" ><path d="M481-781q106 0 200 45.5T838-604q7 9 4.5 16t-8.5 12q-6 5-14 4.5t-14-8.5q-55-78-141.5-119.5T481-741q-97 0-182 41.5T158-580q-6 9-14 10t-14-4q-7-5-8.5-12.5T126-602q62-85 155.5-132T481-781Zm0 94q135 0 232 90t97 223q0 50-35.5 83.5T688-257q-51 0-87.5-33.5T564-374q0-33-24.5-55.5T481-452q-34 0-58.5 22.5T398-374q0 97 57.5 162T604-121q9 3 12 10t1 15q-2 7-8 12t-15 3q-104-26-170-103.5T358-374q0-50 36-84t87-34q51 0 87 34t36 84q0 33 25 55.5t59 22.5q34 0 58-22.5t24-55.5q0-116-85-195t-203-79q-118 0-203 79t-85 194q0 24 4.5 60t21.5 84q3 9-.5 16T208-205q-8 3-15.5-.5T182-217q-15-39-21.5-77.5T154-374q0-133 96.5-223T481-687Zm0-192q64 0 125 15.5T724-819q9 5 10.5 12t-1.5 14q-3 7-10 11t-17-1q-53-27-109.5-41.5T481-839q-58 0-114 13.5T260-783q-8 5-16 2.5T232-791q-4-8-2-14.5t10-11.5q56-30 117-46t124-16Zm0 289q93 0 160 62.5T708-374q0 9-5.5 14.5T688-354q-8 0-14-5.5t-6-14.5q0-75-55.5-125.5T481-550q-76 0-130.5 50.5T296-374q0 81 28 137.5T406-123q6 6 6 14t-6 14q-6 6-14 6t-14-6q-59-62-90.5-126.5T256-374q0-91 66-153.5T481-590Zm-1 196q9 0 14.5 6t5.5 14q0 75 54 123t126 48q6 0 17-1t23-3q9-2 15.5 2.5T744-191q2 8-3 14t-13 8q-18 5-31.5 5.5t-16.5.5q-89 0-154.5-60T460-374q0-8 5.5-14t14.5-6Z"/></symbol><symbol id="grid_on" viewBox="0 -960 960 960" stroke-width="1.5" ><path d="M200-120q-33 0-56.5-23.5T120-200v-560q0-33 23.5-56.5T200-840h560q33 0 56.5 23.5T840-760v560q0 33-23.5 56.5T760-120H200Zm0-80h133v-133H200v133Zm213 0h134v-133H413v133Zm214 0h133v-133H627v133ZM200-413h133v-134H200v134Zm213 0h134v-134H413v134Zm214 0h133v-134H627v134ZM200-627h133v-133H200v133Zm213 0h134v-133H413v133Zm214 0h133v-133H627v133Z"/></symbol><symbol id="grocery" viewBox="0 -960 960 960" stroke-width="1.5" ><path d="M640-80q-100 0-170-70t-70-170q0-100 70-170t170-70q100 0 170 70t70 170q0 100-70 170T640-80Zm0-80q66 0 113-47t47-113q0-66-47-113t-113-47q-66 0-113 47t-47 113q0 66 47 113t113 47Zm-480 0q-33 0-56.5-23.5T80-240v-304q0-8 1.5-16t4.5-16l80-184h-6q-17 0-28.5-11.5T120-800v-40q0-17 11.5-28.5T160-880h280q17 0 28.5 11.5T480-840v40q0 17-11.5 28.5T440-760h-6l66 152q-19 10-36 21t-32 25l-84-198h-96l-92 216v304h170q5 21 13.5 41.5T364-160H160Zm480-440q-42 0-71-29t-29-71q0-42 29-71t71-29v200q0-42 29-71t71-29q42 0 71 29t29 71H640Z"/></symbol><symbol id="help" viewBox="0 -960 960 960" stroke-width="1.5" ><path d="M478-240q21 0 35.5-14.5T528-290q0-21-14.5-35.5T478-340q-21 0-35.5 14.5T428-290q0 21 14.5 35.5T478-240Zm-36-154h74q0-33 7.5-52t42.5-52q26-26 41-49.5t15-56.5q0-56-41-86t-97-30q-57 0-92.5 30T342-618l66 26q5-18 22.5-39t53.5-21q32 0 48 17.5t16 38.5q0 20-12 37.5T506-526q-44 39-54 59t-10 73Zm38 314q-83 0-156-31.5T197-197q-54-54-85.5-127T80-480q0-83 31.5-156T197-763q54-54 127-85.5T480-880q83 0 156 31.5T763-763q54 54 85.5 127T880-480q0 83-31.5 156T763-197q-54 54-127 85.5T480-80Zm0-80q134 0 227-93t93-227q0-134-93-227t-227-93q-134 0-227 93t-93 227q0 134 93 227t227 93Zm0-320Z"/></symbol><symbol id="image" viewBox="0 -960 960 960" stroke-width="1.5" ><path d="M200-120q-33 0-56.5-23.5T120-200v-560q0-33 23.5-56.5T200-840h560q33 0 56.5 23.5T840-760v560q0 33-23.5 56.5T760-120H200Zm0-80h560v-560H200v560Zm40-80h480L570-480 450-320l-90-120-120 160Zm-40 80v-560 560Z"/></symbol><symbol id="info" viewBox="0 -960 960 960" stroke-width="1.5" ><path d="M440-280h80v-240h-80v240Zm40-320q17 0 28.5-11.5T520-640q0-17-11.5-28.5T480-680q-17 0-28.5 11.5T440-640q0 17 11.5 28.5T480-600Zm0 520q-83 0-156-31.5T197-197q-54-54-85.5-127T80-480q0-83 31.5-156T197-763q54-54 127-85.5T480-880q83 0 156 31.5T763-763q54 54 85.5 127T880-480q0 83-31.5 156T763-197q-54 54-127 85.5T480-80Zm0-80q134 0 227-93t93-227q0-134-93-227t-227-93q-134 0-227 93t-93 227q0 134 93 227t227 93Zm0-320Z"/></symbol><symbol id="label" viewBox="0 -960 960 960" stroke-width="1.5" ><path d="M160-160q-33 0-56.5-23.5T80-240v-480q0-33 23.5-56.5T160-800h440q19 0 36 8.5t28 23.5l216 288-216 288q-11 15-28 23.5t-36 8.5H160Zm0-80h440l180-240-180-240H160v480Zm220-240Z"/></symbol><symbol id="lightbulb" viewBox="0 -960 960 960" stroke-width="1.5" ><path d="M480-80q-33 0-56.5-23.5T400-160h160q0 33-23.5 56.5T480-80ZM320-200v-80h320v80H320Zm10-120q-69-41-109.5-110T180-580q0-125 87.5-212.5T480-880q125 0 212.5 87.5T780-580q0 81-40.5 150T630-320H330Zm24-80h252q45-32 69.5-79T700-580q0-92-64-156t-156-64q-92 0-156 64t-64 156q0 54 24.5 101t69.5 79Zm126 0Z"/></symbol><symbol id="local_dining" viewBox="0 -960 960 960" stroke-width="1.5" ><path d="m175-120-56-56 410-410q-18-42-5-95t57-95q53-53 118-62t106 32q41 41 32 106t-62 118q-42 44-95 57t-95-5l-50 50 304 304-56 56-304-302-304 302Zm118-342L173-582q-54-54-54-129t54-129l248 250-128 128Z"/></symbol><symbol id="lock" viewBox="0 -960 960 960" stroke-width="1.5" ><path d="M240-80q-33 0-56.5-23.5T160-160v-400q0-33 23.5-56.5T240-640h40v-80q0-83 58.5-141.5T480-920q83 0 141.5 58.5T680-720v80h40q33 0 56.5 23.5T800-560v400q0 33-23.5 56.5T720-80H240Zm0-80h480v-400H240v400Zm240-120q33 0 56.5-23.5T560-360q0-33-23.5-56.5T480-440q-33 0-56.5 23.5T400-360q0 33 23.5 56.5T480-280ZM360-640h240v-80q0-50-35-85t-85-35q-50 0-85 35t-35 85v80ZM240-160v-400 400Z"/></symbol><symbol id="lock_open" viewBox="0 -960 960 960" stroke-width="1.5" ><path d="M240-640h360v-80q0-50-35-85t-85-35q-50 0-85 35t-35 85h-80q0-83 58.5-141.5T480-920q83 0 141.5 58.5T680-720v80h40q33 0 56.5 23.5T800-560v400q0 33-23.5 56.5T720-80H240q-33 0-56.5-23.5T160-160v-400q0-33 23.5-56.5T240-640Zm0 480h480v-400H240v400Zm240-120q33 0 56.5-23.5T560-360q0-33-23.5-56.5T480-440q-33 0-56.5 23.5T400-360q0 33 23.5 56.5T480-280ZM240-160v-400 400Z"/></symbol><symbol id="menu_book" viewBox="0 -960 960 960" stroke-width="1.5" ><path d="M560-564v-68q33-14 67.5-21t72.5-7q26 0 51 4t49 10v64q-24-9-48.5-13.5T700-600q-38 0-73 9.5T560-564Zm0 220v-68q33-14 67.5-21t72.5-7q26 0 51 4t49 10v64q-24-9-48.5-13.5T700-380q-38 0-73 9t-67 27Zm0-110v-68q33-14 67.5-21t72.5-7q26 0 51 4t49 10v64q-24-9-48.5-13.5T700-490q-38 0-73 9.5T560-454ZM260-320q47 0 91.5 10.5T440-278v-394q-41-24-87-36t-93-12q-36 0-71.5 7T120-692v396q35-12 69.5-18t70.5-6Zm260 42q44-21 88.5-31.5T700-320q36 0 70.5 6t69.5 18v-396q-33-14-68.5-21t-71.5-7q-47 0-93 12t-87 36v394Zm-40 118q-48-38-104-59t-116-21q-42 0-82.5 11T100-198q-21 11-40.5-1T40-234v-482q0-11 5.5-21T62-752q46-24 96-36t102-12q58 0 113.5 15T480-740q51-30 106.5-45T700-800q52 0 102 12t96 36q11 5 16.5 15t5.5 21v482q0 23-19.5 35t-40.5 1q-37-20-77.5-31T700-240q-60 0-116 21t-104 59ZM280-494Z"/></symbol><symbol id="microwave_gen" viewBox="0 -960 960 960" stroke-width="1.5" ><path d="M160-160q-33 0-56.5-23.5T80-240v-480q0-33 23.5-56.5T160-800h640q33 0 56.5 23.5T880-720v480q0 33-23.5 56.5T800-160H160Zm0-80h640v-480H160v480Zm40-40h400v-400H200v400Zm520 0q17 0 28.5-11.5T760-320q0-17-11.5-28.5T720-360q-17 0-28.5 11.5T680-320q0 17 11.5 28.5T720-280Zm-440-80v-240h240v240H280Zm440-80q17 0 28.5-11.5T760-480q0-17-11.5-28.5T720-520q-17 0-28.5 11.5T680-480q0 17 11.5 28.5T720-440Zm0-160q17 0 28.5-11.5T760-640q0-17-11.5-28.5T720-680q-17 0-28.5 11.5T680-640q0 17 11.5 28.5T720-600ZM160-240v-480 480Z"/></symbol><symbol id="note_add" viewBox="0 -960 960 960" stroke-width="1.5" ><path d="M440-240h80v-120h120v-80H520v-120h-80v120H320v80h120v120ZM240-80q-33 0-56.5-23.5T160-160v-640q0-33 23.5-56.5T240-880h320l240 240v480q0 33-23.5 56.5T720-80H240Zm280-520v-200H240v640h480v-440H520ZM240-800v200-200 640-640Z"/></symbol><symbol id="open_in_full" viewBox="0 -960 960 960" stroke-width="1.5" ><path d="M120-120v-320h80v184l504-504H520v-80h320v320h-80v-184L256-200h184v80H120Z"/></symbol><symbol id="open_in_new" viewBox="0 -960 960 960" stroke-width="1.5" ><path d="M200-120q-33 0-56.5-23.5T120-200v-560q0-33 23.5-56.5T200-840h280v80H200v560h560v-280h80v280q0 33-23.5 56.5T760-120H200Zm188-212-56-56 372-372H560v-80h280v280h-80v-144L388-332Z"/></symbol><symbol id="oven" viewBox="0 -960 960 960" stroke-width="1.5" ><path d="M640-680q17 0 28.5-11.5T680-720q0-17-11.5-28.5T640-760q-17 0-28.5 11.5T600-720q0 17 11.5 28.5T640-680Zm-160 0q17 0 28.5-11.5T520-720q0-17-11.5-28.5T480-760q-17 0-28.5 11.5T440-720q0 17 11.5 28.5T480-680Zm-160 0q17 0 28.5-11.5T360-720q0-17-11.5-28.5T320-760q-17 0-28.5 11.5T280-720q0 17 11.5 28.5T320-680ZM200-560v360h560v-360H200Zm200 160h160v-80H400v80ZM200-120q-33 0-56.5-23.5T120-200v-560q0-33 23.5-56.5T200-840h560q33 0 56.5 23.5T840-760v560q0 33-23.5 56.5T760-120H200Zm280-440Zm0 0Z"/></symbol><symbol id="photo_camera" viewBox="0 -960 960 960" stroke-width="1.5" ><path d="M480-260q75 0 127.5-52.5T660-440q0-75-52.5-127.5T480-620q-75 0-127.5 52.5T300-440q0 75 52.5 127.5T480-260Zm0-80q-42 0-71-29t-29-71q0-42 29-71t71-29q42 0 71 29t29 71q0 42-29 71t-71 29ZM160-120q-33 0-56.5-23.5T80-200v-480q0-33 23.5-56.5T160-760h126l74-80h240l74 80h126q33 0 56.5 23.5T880-680v480q0 33-23.5 56.5T800-120H160Zm0-80h640v-480H638l-73-80H395l-73 80H160v480Zm320-240Z"/></symbol><symbol id="picture_as_pdf" viewBox="0 -960 960 960" stroke-width="1.5" ><path d="M360-460h40v-80h40q17 0 28.5-11.5T480-580v-40q0-17-11.5-28.5T440-660h-80v200Zm40-120v-40h40v40h-40Zm120 120h80q17 0 28.5-11.5T640-500v-120q0-17-11.5-28.5T600-660h-80v200Zm40-40v-120h40v120h-40Zm120 40h40v-80h40v-40h-40v-40h40v-40h-80v200ZM320-240q-33 0-56.5-23.5T240-320v-480q0-33 23.5-56.5T320-880h480q33 0 56.5 23.5T880-800v480q0 33-23.5 56.5T800-240H320Zm0-80h480v-480H320v480ZM160-80q-33 0-56.5-23.5T80-160v-560h80v560h560v80H160Zm160-720v480-480Z"/></symbol><symbol id="post_add" viewBox="0 -960 960 960" stroke-width="1.5" ><path d="M200-120q-33 0-56.5-23.5T120-200v-560q0-33 23.5-56.5T200-840h360v80H200v560h560v-360h80v360q0 33-23.5 56.5T760-120H200Zm120-160v-80h320v80H320Zm0-120v-80h320v80H320Zm0-120v-80h320v80H320Zm360-80v-80h-80v-80h80v-80h80v80h80v80h-80v80h-80Z"/></symbol><symbol id="print" viewBox="0 -960 960 960" stroke-width="1.5" ><path d="M640-640v-120H320v120h-80v-200h480v200h-80Zm-480 80h640-640Zm560 100q17 0 28.5-11.5T760-500q0-17-11.5-28.5T720-540q-17 0-28.5 11.5T680-500q0 17 11.5 28.5T720-460Zm-80 260v-160H320v160h320Zm80 80H240v-160H80v-240q0-51 35-85.5t85-34.5h560q51 0 85.5 34.5T880-520v240H720v160Zm80-240v-160q0-17-11.5-28.5T760-560H200q-17 0-28.5 11.5T160-520v160h80v-80h480v80h80Z"/></symbol><symbol id="refresh" viewBox="0 -960 960 960" stroke-width="1.5" ><path d="M480-160q-134 0-227-93t-93-227q0-134 93-227t227-93q69 0 132 28.5T720-690v-110h80v280H520v-80h168q-32-56-87.5-88T480-720q-100 0-170 70t-70 170q0 100 70 170t170 70q77 0 139-44t87-116h84q-28 106-114 173t-196 67Z"/></symbol><symbol id="report" viewBox="0 -960 960 960" stroke-width="1.5" ><path d="M480-280q17 0 28.5-11.5T520-320q0-17-11.5-28.5T480-360q-17 0-28.5 11.5T440-320q0 17 11.5 28.5T480-280Zm-40-160h80v-240h-80v240ZM330-120 120-330v-300l210-210h300l210 210v300L630-120H330Zm34-80h232l164-164v-232L596-760H364L200-596v232l164 164Zm116-280Z"/></symbol><symbol id="restaurant" viewBox="0 -960 960 960" stroke-width="1.5" ><path d="M280-80v-366q-51-14-85.5-56T160-600v-280h80v280h40v-280h80v280h40v-280h80v280q0 56-34.5 98T360-446v366h-80Zm400 0v-320H560v-280q0-83 58.5-141.5T760-880v800h-80Z"/></symbol><symbol id="send" viewBox="0 -960 960 960" stroke-width="1.5" ><path d="M120-160v-640l760 320-760 320Zm80-120 474-200-474-200v140l240 60-240 60v140Zm0 0v-400 400Z"/></symbol><symbol id="send_to_mobile" viewBox="0 -960 960 960" stroke-width="1.5" ><path d="m680-320-56-56 62-64H480v-80h206l-62-64 56-56 160 160-160 160ZM280-40q-33 0-56.5-23.5T200-120v-720q0-33 23.5-56.5T280-920h400q33 0 56.5 23.5T760-840v160h-80v-40H280v480h400v-40h80v160q0 33-23.5 56.5T680-40H280Zm0-120v40h400v-40H280Zm0-640h400v-40H280v40Zm0 0v-40 40Zm0 640v40-40Z"/></symbol><symbol id="share" viewBox="0 -960 960 960" stroke-width="1.5" ><path d="M680-80q-50 0-85-35t-35-85q0-6 3-28L282-392q-16 15-37 23.5t-45 8.5q-50 0-85-35t-35-85q0-50 35-85t85-35q24 0 45 8.5t37 23.5l281-164q-2-7-2.5-13.5T560-760q0-50 35-85t85-35q50 0 85 35t35 85q0 50-35 85t-85 35q-24 0-45-8.5T598-672L317-508q2 7 2.5 13.5t.5 14.5q0 8-.5 14.5T317-452l281 164q16-15 37-23.5t45-8.5q50 0 85 35t35 85q0 50-35 85t-85 35Zm0-80q17 0 28.5-11.5T720-200q0-17-11.5-28.5T680-240q-17 0-28.5 11.5T640-200q0 17 11.5 28.5T680-160ZM200-440q17 0 28.5-11.5T240-480q0-17-11.5-28.5T200-520q-17 0-28.5 11.5T160-480q0 17 11.5 28.5T200-440Zm480-280q17 0 28.5-11.5T720-760q0-17-11.5-28.5T680-800q-17 0-28.5 11.5T640-760q0 17 11.5 28.5T680-720Zm0 520ZM200-480Zm480-280Z"/></symbol><symbol id="speech_to_text" viewBox="0 -960 960 960" stroke-width="1.5" ><path d="M680-560q-33 0-56.5-23T600-640v-160q0-34 23.5-57t56.5-23q34 0 57 23t23 57v160q0 34-23 57t-57 23ZM200-80q-33 0-56.5-23.5T120-160v-640q0-33 23.5-56.5T200-880h320v80H200v640h440v-80h80v80q0 33-23.5 56.5T640-80H200Zm80-160v-80h280v80H280Zm0-120v-80h200v80H280Zm440 40h-80v-104q-77-14-128.5-74.5T460-640h80q0 58 41 99t99 41q59 0 99.5-41t40.5-99h80q0 81-51 141.5T720-424v104Z"/></symbol><symbol id="table" viewBox="0 -960 960 960" stroke-width="1.5" ><path d="M200-120q-33 0-56.5-23.5T120-200v-560q0-33 23.5-56.5T200-840h560q33 0 56.5 23.5T840-760v560q0 33-23.5 56.5T760-120H200Zm240-240H200v160h240v-160Zm80 0v160h240v-160H520Zm-80-80v-160H200v160h240Zm80 0h240v-160H520v160ZM200-680h560v-80H200v80Z"/></symbol><symbol id="task_alt" viewBox="0 -960 960 960" stroke-width="1.5" ><path d="M480-80q-83 0-156-31.5T197-197q-54-54-85.5-127T80-480q0-83 31.5-156T197-763q54-54 127-85.5T480-880q65 0 123 19t107 53l-58 59q-38-24-81-37.5T480-800q-133 0-226.5 93.5T160-480q0 133 93.5 226.5T480-160q133 0 226.5-93.5T800-480q0-18-2-36t-6-35l65-65q11 32 17 66t6 70q0 83-31.5 156T763-197q-54 54-127 85.5T480-80Zm-56-216L254-466l56-56 114 114 400-401 56 56-456 457Z"/></symbol><symbol id="toggle_off" viewBox="0 -960 960 960" stroke-width="1.5" ><path d="M280-240q-100 0-170-70T40-480q0-100 70-170t170-70h400q100 0 170 70t70 170q0 100-70 170t-170 70H280Zm0-80h400q66 0 113-47t47-113q0-66-47-113t-113-47H280q-66 0-113 47t-47 113q0 66 47 113t113 47Zm0-40q50 0 85-35t35-85q0-50-35-85t-85-35q-50 0-85 35t-35 85q0 50 35 85t85 35Zm200-120Z"/></symbol><symbol id="toggle_on" viewBox="0 -960 960 960" stroke-width="1.5" ><path d="M280-240q-100 0-170-70T40-480q0-100 70-170t170-70h400q100 0 170 70t70 170q0 100-70 170t-170 70H280Zm0-80h400q66 0 113-47t47-113q0-66-47-113t-113-47H280q-66 0-113 47t-47 113q0 66 47 113t113 47Zm400-40q50 0 85-35t35-85q0-50-35-85t-85-35q-50 0-85 35t-35 85q0 50 35 85t85 35ZM480-480Z"/></symbol><symbol id="video_file" viewBox="0 -960 960 960" stroke-width="1.5" ><path d="M360-240h160q17 0 28.5-11.5T560-280v-40l80 42v-164l-80 42v-40q0-17-11.5-28.5T520-480H360q-17 0-28.5 11.5T320-440v160q0 17 11.5 28.5T360-240ZM240-80q-33 0-56.5-23.5T160-160v-640q0-33 23.5-56.5T240-880h320l240 240v480q0 33-23.5 56.5T720-80H240Zm280-520v-200H240v640h480v-440H520ZM240-800v200-200 640-640Z"/></symbol>
<symbol id="visibility" viewBox="0 -960 960 960" stroke-width="1.5" ><path d="M480-320q75 0 127.5-52.5T660-500q0-75-52.5-127.5T480-680q-75 0-127.5 52.5T300-500q0 75 52.5 127.5T480-320Zm0-72q-45 0-76.5-31.5T372-500q0-45 31.5-76.5T480-608q45 0 76.5 31.5T588-500q0 45-31.5 76.5T480-392Zm0 192q-146 0-266-81.5T40-500q54-137 174-218.5T480-800q146 0 266 81.5T920-500q-54 137-174 218.5T480-200Zm0-300Zm0 220q113 0 207.5-59.5T832-500q-50-101-144.5-160.5T480-720q-113 0-207.5 59.5T128-500q50 101 144.5 160.5T480-280Z"/></symbol>
<symbol id="visibility_lock" viewBox="0 -960 960 960" stroke-width="1.5" ><path d="M480-392q-45 0-76.5-31.5T372-500q0-45 31.5-76.5T480-608q45 0 76.5 31.5T588-500q0 45-31.5 76.5T480-392Zm0 192q-146 0-266-81.5T40-500q54-137 174-218.5T480-800q141 0 257.5 76T912-520h-91q-52-93-143-146.5T480-720q-113 0-207.5 59.5T128-500q50 101 144.5 160.5T480-280q20 0 40-2t40-6v81q-20 3-40 5t-40 2Zm0-120q22 0 42.5-5t38.5-14q5-50 31.5-90t67.5-64v-7q0-75-52.5-127.5T480-680q-75 0-127.5 52.5T300-500q0 75 52.5 127.5T480-320Zm-5-180Zm205 380q-17 0-28.5-11.5T640-160v-120q0-17 11.5-28.5T680-320v-40q0-33 23.5-56.5T760-440q33 0 56.5 23.5T840-360v40q17 0 28.5 11.5T880-280v120q0 17-11.5 28.5T840-120H680Zm40-200h80v-40q0-17-11.5-28.5T760-400q-17 0-28.5 11.5T720-360v40Z"/></symbol>
<symbol id="visibility_off" viewBox="0 -960 960 960" stroke-width="1.5" ><path d="m644-428-58-58q9-47-27-88t-93-32l-58-58q17-8 34.5-12t37.5-4q75 0 127.5 52.5T660-500q0 20-4 37.5T644-428Zm128 126-58-56q38-29 67.5-63.5T832-500q-50-101-143.5-160.5T480-720q-29 0-57 4t-55 12l-62-62q41-17 84-25.5t90-8.5q151 0 269 83.5T920-500q-23 59-60.5 109.5T772-302Zm20 246L624-222q-35 11-70.5 16.5T480-200q-151 0-269-83.5T40-500q21-53 53-98.5t73-81.5L56-792l56-56 736 736-56 56ZM222-624q-29 26-53 57t-41 67q50 101 143.5 160.5T480-280q20 0 39-2.5t39-5.5l-36-38q-11 3-21 4.5t-21 1.5q-75 0-127.5-52.5T300-500q0-11 1.5-21t4.5-21l-84-82Zm319 93Zm-151 75Z"/></symbol>
<symbol id="warning" viewBox="0 -960 960 960" stroke-width="1.5" ><path d="m40-120 440-760 440 760H40Zm138-80h604L480-720 178-200Zm302-40q17 0 28.5-11.5T520-280q0-17-11.5-28.5T480-320q-17 0-28.5 11.5T440-280q0 17 11.5 28.5T480-240Zm-40-120h80v-200h-80v200Zm40-100Z"/></symbol>
<symbol id="arrow_drop_up" viewBox="0 -960 960 960" stroke-width="1.5"><path d="m280-400 200-200 200 200H280Z"/></symbol><symbol id="more_horiz" viewBox="0 -960 960 960" stroke-width="1.5"><path d="M240-400q-33 0-56.5-23.5T160-480q0-33 23.5-56.5T240-560q33 0 56.5 23.5T320-480q0 33-23.5 56.5T240-400Zm240 0q-33 0-56.5-23.5T400-480q0-33 23.5-56.5T480-560q33 0 56.5 23.5T560-480q0 33-23.5 56.5T480-400Zm240 0q-33 0-56.5-23.5T640-480q0-33 23.5-56.5T720-560q33 0 56.5 23.5T800-480q0 33-23.5 56.5T720-400Z"/></symbol><symbol id="more_vert" viewBox="0 -960 960 960" stroke-width="1.5"><path d="M480-160q-33 0-56.5-23.5T400-240q0-33 23.5-56.5T480-320q33 0 56.5 23.5T560-240q0 33-23.5 56.5T480-160Zm0-240q-33 0-56.5-23.5T400-480q0-33 23.5-56.5T480-560q33 0 56.5 23.5T560-480q0 33-23.5 56.5T480-400Zm0-240q-33 0-56.5-23.5T400-720q0-33 23.5-56.5T480-800q33 0 56.5 23.5T560-720q0 33-23.5 56.5T480-640Z"/></symbol><symbol id="settings" viewBox="0 -960 960 960" stroke-width="1.5"><path d="m370-80-16-128q-13-5-24.5-12T307-235l-119 50L78-375l103-78q-1-7-1-13.5v-27q0-6.5 1-13.5L78-585l110-190 119 50q11-8 23-15t24-12l16-128h220l16 128q13 5 24.5 12t22.5 15l119-50 110 190-103 78q1 7 1 13.5v27q0 6.5-2 13.5l103 78-110 190-118-50q-11 8-23 15t-24 12L590-80H370Zm70-80h79l14-106q31-8 57.5-23.5T639-327l99 41 39-68-86-65q5-14 7-29.5t2-31.5q0-16-2-31.5t-7-29.5l86-65-39-68-99 42q-22-23-48.5-38.5T533-694l-13-106h-79l-14 106q-31 8-57.5 23.5T321-633l-99-41-39 68 86 64q-5 15-7 30t-2 32q0 16 2 31t7 30l-86 65 39 68 99-42q22 23 48.5 38.5T427-266l13 106Zm42-180q58 0 99-41t41-99q0-58-41-99t-99-41q-59 0-99.5 41T342-480q0 58 40.5 99t99.5 41Zm-2-140Z"/></symbol>
<symbol id="edit" viewBox="0 -960 960 960" stroke-width="1.5" ><path d="M200-200h57l391-391-57-57-391 391v57Zm-80 80v-170l528-527q12-11 26.5-17t30.5-6q16 0 31 6t26 18l55 56q12 11 17.5 26t5.5 30q0 16-5.5 30.5T817-647L290-120H120Zm640-584-56-56 56 56Zm-141 85-28-29 57 57-29-28Z"/></symbol>
<symbol id="save" viewBox="0 -960 960 960" stroke-width="1.5" ><path d="M840-680v480q0 33-23.5 56.5T760-120H200q-33 0-56.5-23.5T120-200v-560q0-33 23.5-56.5T200-840h480l160 160Zm-80 34L646-760H200v560h560v-446ZM480-240q50 0 85-35t35-85q0-50-35-85t-85-35q-50 0-85 35t-35 85q0 50 35 85t85 35ZM240-560h360v-160H240v160Zm-40-86v446-560 114Z"/></symbol>
<symbol id="circle" viewBox="0 -960 960 960" stroke-width="1.5"><path d="M480-80q-83 0-156-31.5T197-197q-54-54-85.5-127T80-480q0-83 31.5-156T197-763q54-54 127-85.5T480-880q83 0 156 31.5T763-763q54 54 85.5 127T880-480q0 83-31.5 156T763-197q-54 54-127 85.5T480-80Zm0-80q134 0 227-93t93-227q0-134-93-227t-227-93q-134 0-227 93t-93 227q0 134 93 227t227 93Zm0-320Z"/></symbol><symbol id="radio_button_unchecked" viewBox="0 -960 960 960"  stroke-width="1.5"><path d="M480-80q-83 0-156-31.5T197-197q-54-54-85.5-127T80-480q0-83 31.5-156T197-763q54-54 127-85.5T480-880q83 0 156 31.5T763-763q54 54 85.5 127T880-480q0 83-31.5 156T763-197q-54 54-127 85.5T480-80Zm0-80q134 0 227-93t93-227q0-134-93-227t-227-93q-134 0-227 93t-93 227q0 134 93 227t227 93Zm0-320Z"/></symbol>
</svg>