<svg width="192" height="192" viewBox="0 0 192 192" fill="none" xmlns="http://www.w3.org/2000/svg">
<circle cx="96.5" cy="96.5" r="95.5" fill="white"/>
<path d="M84.166 56.8392H91.7186L95.2152 68.0283H95.7747C100.903 61.4081 107.943 57.3986 116.894 56L118.153 67.0492C113.77 67.3289 109.528 68.4478 105.425 70.4059C101.323 72.364 98.199 74.9748 96.0544 78.2383V120.617H84.166V56.8392Z" fill="black"/>
<path fill-rule="evenodd" clip-rule="evenodd" d="M20.8714 118.278L20 118.574C23.3167 128.338 33.5676 136.152 46.757 141.483C60.1427 146.893 77.3823 150.101 96.0961 150.101C114.81 150.101 132.05 146.893 145.435 141.483C158.625 136.152 168.876 128.338 172.192 118.574L171.321 118.278H164.451C161.412 124.293 154.011 130.18 142.713 134.747C130.335 139.749 114.044 142.836 96.0961 142.836C78.1484 142.836 61.8577 139.749 49.4796 134.747C38.181 130.18 30.7804 124.293 27.7415 118.278H20.8714Z" fill="black"/>
</svg>
