<svg width="120" height="120" viewBox="0 0 120 120" fill="none" xmlns="http://www.w3.org/2000/svg">
<circle cx="60.4992" cy="60.4992" r="58.4992" fill="white"/>
<mask id="path-2-outside-1_123_505" maskUnits="userSpaceOnUse" x="9.21875" y="46.624" width="102" height="33" fill="black">
<rect fill="white" x="9.21875" y="46.624" width="102" height="33"/>
<path d="M10.1517 54.3565H12.0782L12.97 57.2104H13.1127C14.4208 55.5218 16.2164 54.4992 18.4996 54.1424L18.8206 56.9607C17.7028 57.0321 16.6207 57.3175 15.5743 57.8169C14.5278 58.3163 13.7311 58.9823 13.1841 59.8147V70.624H10.1517V54.3565ZM27.933 68.5549C29.6453 68.5549 31.3577 68.0436 33.0701 67.0209L34.1046 69.1614C32.1069 70.4219 29.9664 71.0521 27.6832 71.0521C25.4238 71.0521 23.6282 70.3386 22.2964 68.9116C20.9645 67.4609 20.2986 65.3799 20.2986 62.6686C20.2986 59.9574 20.9883 57.8288 22.3677 56.2829C23.7471 54.7132 25.5784 53.9284 27.8616 53.9284C29.9307 53.9284 31.5599 54.5705 32.749 55.8548C33.2484 56.378 33.6646 57.1391 33.9976 58.138C34.3544 59.1368 34.5327 60.3141 34.5327 61.6697L33.4268 62.9183H23.3309C23.4023 66.6761 24.9363 68.5549 27.933 68.5549ZM31.5361 60.6709C31.5361 59.339 31.1912 58.2688 30.5015 57.4601C29.8118 56.6515 28.8962 56.2472 27.7546 56.2472C26.6368 56.2472 25.6855 56.6515 24.9006 57.4601C24.1158 58.245 23.6401 59.3152 23.4736 60.6709H31.5361ZM44.652 53.9284C46.2455 53.9284 47.8627 54.2851 49.5037 54.9986L48.6119 57.2104C47.3989 56.6872 46.1028 56.4256 44.7234 56.4256C43.3677 56.4256 42.2856 56.9369 41.477 57.9596C40.6921 58.9823 40.2997 60.4806 40.2997 62.4546C40.2997 64.4286 40.7159 65.9388 41.5483 66.9852C42.3807 68.0317 43.4748 68.5549 44.8304 68.5549C46.186 68.5549 47.5892 68.2219 49.04 67.556L49.7178 69.9105C48.053 70.6716 46.3644 71.0521 44.652 71.0521C42.4402 71.0521 40.6327 70.2554 39.2295 68.6619C37.8501 67.0447 37.1604 64.9756 37.1604 62.4546C37.1604 59.9098 37.8501 57.8526 39.2295 56.2829C40.6327 54.7132 42.4402 53.9284 44.652 53.9284ZM56.1431 50.5393C55.7626 50.9198 55.2988 51.1101 54.7518 51.1101C54.2048 51.1101 53.741 50.9198 53.3605 50.5393C52.9799 50.135 52.7897 49.6593 52.7897 49.1123C52.7897 48.5653 52.9799 48.1016 53.3605 47.721C53.7648 47.3167 54.2286 47.1146 54.7518 47.1146C55.275 47.1146 55.7269 47.3167 56.1074 47.721C56.5117 48.1016 56.7139 48.5653 56.7139 49.1123C56.7139 49.6593 56.5236 50.135 56.1431 50.5393ZM53.2535 54.3565H56.2858V70.624H53.2535V54.3565ZM67.9555 68.6263C69.7392 68.6263 71.1186 68.0198 72.0937 66.8069C73.0688 65.5939 73.5564 64.1194 73.5564 62.3832C73.5564 60.6233 73.1283 59.2082 72.2721 58.138C71.4397 57.0677 70.2862 56.5326 68.8117 56.5326C68.2409 56.5326 67.5631 56.6991 66.7783 57.0321C65.9934 57.365 65.2918 57.805 64.6735 58.352V67.9841C65.7913 68.4122 66.8853 68.6263 67.9555 68.6263ZM64.6735 78.8291H61.7125V54.3565H63.6389L64.4594 56.2115C66.1956 54.6894 68.0387 53.9284 69.989 53.9284C71.9392 53.9284 73.5326 54.6894 74.7693 56.2115C76.006 57.7337 76.6244 59.7195 76.6244 62.1692C76.6244 64.595 75.899 66.6879 74.4483 68.4479C73.0213 70.184 70.9759 71.0521 68.3123 71.0521C67.1231 71.0521 65.9102 70.8856 64.6735 70.5527V78.8291ZM87.2278 68.5549C88.9402 68.5549 90.6525 68.0436 92.3649 67.0209L93.3995 69.1614C91.4017 70.4219 89.2612 71.0521 86.9781 71.0521C84.7187 71.0521 82.9231 70.3386 81.5912 68.9116C80.2594 67.4609 79.5935 65.3799 79.5935 62.6686C79.5935 59.9574 80.2832 57.8288 81.6626 56.2829C83.042 54.7132 84.8733 53.9284 87.1564 53.9284C89.2256 53.9284 90.8547 54.5705 92.0438 55.8548C92.5433 56.378 92.9595 57.1391 93.2924 58.138C93.6492 59.1368 93.8276 60.3141 93.8276 61.6697L92.7217 62.9183H82.6258C82.6971 66.6761 84.2311 68.5549 87.2278 68.5549ZM90.8309 60.6709C90.8309 59.339 90.4861 58.2688 89.7964 57.4601C89.1066 56.6515 88.191 56.2472 87.0494 56.2472C85.9316 56.2472 84.9803 56.6515 84.1955 57.4601C83.4106 58.245 82.935 59.3152 82.7685 60.6709H90.8309ZM104.09 68.5549C105.802 68.5549 107.514 68.0436 109.227 67.0209L110.261 69.1614C108.263 70.4219 106.123 71.0521 103.84 71.0521C101.58 71.0521 99.7848 70.3386 98.453 68.9116C97.1211 67.4609 96.4552 65.3799 96.4552 62.6686C96.4552 59.9574 97.1449 57.8288 98.5243 56.2829C99.9037 54.7132 101.735 53.9284 104.018 53.9284C106.087 53.9284 107.716 54.5705 108.906 55.8548C109.405 56.378 109.821 57.1391 110.154 58.138C110.511 59.1368 110.689 60.3141 110.689 61.6697L109.583 62.9183H99.4875C99.5589 66.6761 101.093 68.5549 104.09 68.5549ZM107.693 60.6709C107.693 59.339 107.348 58.2688 106.658 57.4601C105.968 56.6515 105.053 56.2472 103.911 56.2472C102.793 56.2472 101.842 56.6515 101.057 57.4601C100.272 58.245 99.7967 59.3152 99.6302 60.6709H107.693Z"/>
</mask>
<path d="M10.1517 54.3565H12.0782L12.97 57.2104H13.1127C14.4208 55.5218 16.2164 54.4992 18.4996 54.1424L18.8206 56.9607C17.7028 57.0321 16.6207 57.3175 15.5743 57.8169C14.5278 58.3163 13.7311 58.9823 13.1841 59.8147V70.624H10.1517V54.3565ZM27.933 68.5549C29.6453 68.5549 31.3577 68.0436 33.0701 67.0209L34.1046 69.1614C32.1069 70.4219 29.9664 71.0521 27.6832 71.0521C25.4238 71.0521 23.6282 70.3386 22.2964 68.9116C20.9645 67.4609 20.2986 65.3799 20.2986 62.6686C20.2986 59.9574 20.9883 57.8288 22.3677 56.2829C23.7471 54.7132 25.5784 53.9284 27.8616 53.9284C29.9307 53.9284 31.5599 54.5705 32.749 55.8548C33.2484 56.378 33.6646 57.1391 33.9976 58.138C34.3544 59.1368 34.5327 60.3141 34.5327 61.6697L33.4268 62.9183H23.3309C23.4023 66.6761 24.9363 68.5549 27.933 68.5549ZM31.5361 60.6709C31.5361 59.339 31.1912 58.2688 30.5015 57.4601C29.8118 56.6515 28.8962 56.2472 27.7546 56.2472C26.6368 56.2472 25.6855 56.6515 24.9006 57.4601C24.1158 58.245 23.6401 59.3152 23.4736 60.6709H31.5361ZM44.652 53.9284C46.2455 53.9284 47.8627 54.2851 49.5037 54.9986L48.6119 57.2104C47.3989 56.6872 46.1028 56.4256 44.7234 56.4256C43.3677 56.4256 42.2856 56.9369 41.477 57.9596C40.6921 58.9823 40.2997 60.4806 40.2997 62.4546C40.2997 64.4286 40.7159 65.9388 41.5483 66.9852C42.3807 68.0317 43.4748 68.5549 44.8304 68.5549C46.186 68.5549 47.5892 68.2219 49.04 67.556L49.7178 69.9105C48.053 70.6716 46.3644 71.0521 44.652 71.0521C42.4402 71.0521 40.6327 70.2554 39.2295 68.6619C37.8501 67.0447 37.1604 64.9756 37.1604 62.4546C37.1604 59.9098 37.8501 57.8526 39.2295 56.2829C40.6327 54.7132 42.4402 53.9284 44.652 53.9284ZM56.1431 50.5393C55.7626 50.9198 55.2988 51.1101 54.7518 51.1101C54.2048 51.1101 53.741 50.9198 53.3605 50.5393C52.9799 50.135 52.7897 49.6593 52.7897 49.1123C52.7897 48.5653 52.9799 48.1016 53.3605 47.721C53.7648 47.3167 54.2286 47.1146 54.7518 47.1146C55.275 47.1146 55.7269 47.3167 56.1074 47.721C56.5117 48.1016 56.7139 48.5653 56.7139 49.1123C56.7139 49.6593 56.5236 50.135 56.1431 50.5393ZM53.2535 54.3565H56.2858V70.624H53.2535V54.3565ZM67.9555 68.6263C69.7392 68.6263 71.1186 68.0198 72.0937 66.8069C73.0688 65.5939 73.5564 64.1194 73.5564 62.3832C73.5564 60.6233 73.1283 59.2082 72.2721 58.138C71.4397 57.0677 70.2862 56.5326 68.8117 56.5326C68.2409 56.5326 67.5631 56.6991 66.7783 57.0321C65.9934 57.365 65.2918 57.805 64.6735 58.352V67.9841C65.7913 68.4122 66.8853 68.6263 67.9555 68.6263ZM64.6735 78.8291H61.7125V54.3565H63.6389L64.4594 56.2115C66.1956 54.6894 68.0387 53.9284 69.989 53.9284C71.9392 53.9284 73.5326 54.6894 74.7693 56.2115C76.006 57.7337 76.6244 59.7195 76.6244 62.1692C76.6244 64.595 75.899 66.6879 74.4483 68.4479C73.0213 70.184 70.9759 71.0521 68.3123 71.0521C67.1231 71.0521 65.9102 70.8856 64.6735 70.5527V78.8291ZM87.2278 68.5549C88.9402 68.5549 90.6525 68.0436 92.3649 67.0209L93.3995 69.1614C91.4017 70.4219 89.2612 71.0521 86.9781 71.0521C84.7187 71.0521 82.9231 70.3386 81.5912 68.9116C80.2594 67.4609 79.5935 65.3799 79.5935 62.6686C79.5935 59.9574 80.2832 57.8288 81.6626 56.2829C83.042 54.7132 84.8733 53.9284 87.1564 53.9284C89.2256 53.9284 90.8547 54.5705 92.0438 55.8548C92.5433 56.378 92.9595 57.1391 93.2924 58.138C93.6492 59.1368 93.8276 60.3141 93.8276 61.6697L92.7217 62.9183H82.6258C82.6971 66.6761 84.2311 68.5549 87.2278 68.5549ZM90.8309 60.6709C90.8309 59.339 90.4861 58.2688 89.7964 57.4601C89.1066 56.6515 88.191 56.2472 87.0494 56.2472C85.9316 56.2472 84.9803 56.6515 84.1955 57.4601C83.4106 58.245 82.935 59.3152 82.7685 60.6709H90.8309ZM104.09 68.5549C105.802 68.5549 107.514 68.0436 109.227 67.0209L110.261 69.1614C108.263 70.4219 106.123 71.0521 103.84 71.0521C101.58 71.0521 99.7848 70.3386 98.453 68.9116C97.1211 67.4609 96.4552 65.3799 96.4552 62.6686C96.4552 59.9574 97.1449 57.8288 98.5243 56.2829C99.9037 54.7132 101.735 53.9284 104.018 53.9284C106.087 53.9284 107.716 54.5705 108.906 55.8548C109.405 56.378 109.821 57.1391 110.154 58.138C110.511 59.1368 110.689 60.3141 110.689 61.6697L109.583 62.9183H99.4875C99.5589 66.6761 101.093 68.5549 104.09 68.5549ZM107.693 60.6709C107.693 59.339 107.348 58.2688 106.658 57.4601C105.968 56.6515 105.053 56.2472 103.911 56.2472C102.793 56.2472 101.842 56.6515 101.057 57.4601C100.272 58.245 99.7967 59.3152 99.6302 60.6709H107.693Z" fill="black"/>
<path d="M10.1517 54.3565V53.8932H9.68844V54.3565H10.1517ZM12.0782 54.3565L12.5204 54.2183L12.4188 53.8932H12.0782V54.3565ZM12.97 57.2104L12.5278 57.3486L12.6294 57.6737H12.97V57.2104ZM13.1127 57.2104V57.6737H13.3399L13.479 57.4942L13.1127 57.2104ZM18.4996 54.1424L18.9599 54.09L18.9052 53.6101L18.428 53.6847L18.4996 54.1424ZM18.8206 56.9607L18.8501 57.4231L19.3361 57.3921L19.281 56.9083L18.8206 56.9607ZM15.5743 57.8169L15.3747 57.3988L15.5743 57.8169ZM13.1841 59.8147L12.7969 59.5602L12.7208 59.6761V59.8147H13.1841ZM13.1841 70.624V71.0873H13.6474V70.624H13.1841ZM10.1517 70.624H9.68844V71.0873H10.1517V70.624ZM10.1517 54.8198H12.0782V53.8932H10.1517V54.8198ZM11.6359 54.4947L12.5278 57.3486L13.4122 57.0722L12.5204 54.2183L11.6359 54.4947ZM12.97 57.6737H13.1127V56.7471H12.97V57.6737ZM13.479 57.4942C14.7084 55.9071 16.3943 54.9403 18.5711 54.6002L18.428 53.6847C16.0385 54.058 14.1332 55.1366 12.7465 56.9267L13.479 57.4942ZM18.0392 54.1949L18.3603 57.0131L19.281 56.9083L18.9599 54.09L18.0392 54.1949ZM18.7911 56.4983C17.6123 56.5736 16.4726 56.8748 15.3747 57.3988L15.7738 58.235C16.7688 57.7601 17.7934 57.4905 18.8501 57.4231L18.7911 56.4983ZM15.3747 57.3988C14.2647 57.9286 13.3975 58.6463 12.7969 59.5602L13.5713 60.0691C14.0647 59.3183 14.791 58.7041 15.7738 58.235L15.3747 57.3988ZM12.7208 59.8147V70.624H13.6474V59.8147H12.7208ZM13.1841 70.1607H10.1517V71.0873H13.1841V70.1607ZM10.615 70.624V54.3565H9.68844V70.624H10.615ZM33.0701 67.0209L33.4872 66.8193L33.267 66.3637L32.8325 66.6231L33.0701 67.0209ZM34.1046 69.1614L34.3519 69.5532L34.7019 69.3324L34.5218 68.9598L34.1046 69.1614ZM22.2964 68.9116L21.9551 69.225L21.9577 69.2278L22.2964 68.9116ZM22.3677 56.2829L22.7134 56.5914L22.7158 56.5887L22.3677 56.2829ZM32.749 55.8548L32.409 56.1696L32.4139 56.1747L32.749 55.8548ZM33.9976 58.138L33.558 58.2845L33.5613 58.2938L33.9976 58.138ZM34.5327 61.6697L34.8796 61.9769L34.996 61.8454V61.6697H34.5327ZM33.4268 62.9183V63.3816H33.6354L33.7736 63.2255L33.4268 62.9183ZM23.3309 62.9183V62.455H22.8588L22.8677 62.9271L23.3309 62.9183ZM31.5361 60.6709V61.1342H31.9994V60.6709H31.5361ZM30.5015 57.4601L30.854 57.1595L30.854 57.1595L30.5015 57.4601ZM24.9006 57.4601L25.2283 57.7878L25.2331 57.7828L24.9006 57.4601ZM23.4736 60.6709L23.0138 60.6144L22.95 61.1342H23.4736V60.6709ZM27.933 69.0182C29.7419 69.0182 31.5354 68.4771 33.3076 67.4187L32.8325 66.6231C31.18 67.6101 29.5487 68.0916 27.933 68.0916V69.0182ZM32.6529 67.2225L33.6875 69.363L34.5218 68.9598L33.4872 66.8193L32.6529 67.2225ZM33.8574 68.7695C31.9309 69.985 29.8758 70.5888 27.6832 70.5888V71.5154C30.057 71.5154 32.2828 70.8587 34.3519 69.5532L33.8574 68.7695ZM27.6832 70.5888C25.5301 70.5888 23.8653 69.9136 22.6351 68.5955L21.9577 69.2278C23.3912 70.7637 25.3176 71.5154 27.6832 71.5154V70.5888ZM22.6377 68.5983C21.4097 67.2607 20.7619 65.3079 20.7619 62.6686H19.8353C19.8353 65.4518 20.5193 67.661 21.9551 69.225L22.6377 68.5983ZM20.7619 62.6686C20.7619 60.0352 21.4307 58.0289 22.7134 56.5914L22.022 55.9744C20.546 57.6286 19.8353 59.8795 19.8353 62.6686H20.7619ZM22.7158 56.5887C23.9984 55.1291 25.6978 54.3917 27.8616 54.3917V53.4651C25.4591 53.4651 23.4959 54.2973 22.0197 55.9771L22.7158 56.5887ZM27.8616 54.3917C29.8273 54.3917 31.3236 54.9973 32.409 56.1696L33.089 55.54C31.7961 54.1438 30.0342 53.4651 27.8616 53.4651V54.3917ZM32.4139 56.1747C32.8497 56.6313 33.2376 57.3231 33.5581 58.2845L34.4371 57.9915C34.0917 56.955 33.6472 56.1248 33.0841 55.5349L32.4139 56.1747ZM33.5613 58.2938C33.896 59.2309 34.0694 60.3531 34.0694 61.6697H34.996C34.996 60.2751 34.8127 59.0428 34.4339 57.9821L33.5613 58.2938ZM34.1859 61.3625L33.08 62.6112L33.7736 63.2255L34.8796 61.9769L34.1859 61.3625ZM33.4268 62.455H23.3309V63.3816H33.4268V62.455ZM22.8677 62.9271C22.9043 64.856 23.316 66.3854 24.1761 67.4388C25.0515 68.511 26.3314 69.0182 27.933 69.0182V68.0916C26.5378 68.0916 25.5524 67.6594 24.8938 66.8528C24.2199 66.0273 23.8289 64.7384 23.7942 62.9095L22.8677 62.9271ZM31.9994 60.6709C31.9994 59.2576 31.6319 58.0715 30.854 57.1595L30.149 57.7608C30.7505 58.466 31.0728 59.4204 31.0728 60.6709H31.9994ZM30.854 57.1595C30.0691 56.2393 29.0204 55.7839 27.7546 55.7839V56.7105C28.7719 56.7105 29.5545 57.0638 30.149 57.7608L30.854 57.1595ZM27.7546 55.7839C26.5104 55.7839 25.4395 56.2398 24.5682 57.1375L25.2331 57.7828C25.9315 57.0633 26.7632 56.7105 27.7546 56.7105V55.7839ZM24.573 57.1325C23.6995 58.0061 23.1899 59.1804 23.0138 60.6144L23.9335 60.7273C24.0904 59.45 24.5321 58.4839 25.2282 57.7878L24.573 57.1325ZM23.4736 61.1342H31.5361V60.2075H23.4736V61.1342ZM49.5037 54.9986L49.9334 55.1719L50.1021 54.7536L49.6885 54.5737L49.5037 54.9986ZM48.6119 57.2104L48.4284 57.6358L48.8641 57.8238L49.0416 57.3837L48.6119 57.2104ZM41.477 57.9596L41.1135 57.6722L41.1094 57.6775L41.477 57.9596ZM41.5483 66.9852L41.1857 67.2736L41.1857 67.2736L41.5483 66.9852ZM49.04 67.556L49.4852 67.4279L49.3362 66.9103L48.8467 67.135L49.04 67.556ZM49.7178 69.9105L49.9104 70.3319L50.2734 70.1659L50.163 69.7824L49.7178 69.9105ZM39.2295 68.6619L38.8769 68.9626L38.8818 68.9681L39.2295 68.6619ZM39.2295 56.2829L38.8841 55.9741L38.8815 55.9771L39.2295 56.2829ZM44.652 54.3917C46.1745 54.3917 47.7291 54.7322 49.319 55.4235L49.6885 54.5737C47.9963 53.838 46.3164 53.4651 44.652 53.4651V54.3917ZM49.074 54.8254L48.1822 57.0372L49.0416 57.3837L49.9334 55.1719L49.074 54.8254ZM48.7954 56.785C47.5219 56.2357 46.163 55.9623 44.7234 55.9623V56.8889C46.0425 56.8889 47.2759 57.1387 48.4284 57.6358L48.7954 56.785ZM44.7234 55.9623C43.2326 55.9623 42.014 56.5334 41.1136 57.6722L41.8404 58.2469C42.5572 57.3404 43.5029 56.8889 44.7234 56.8889V55.9623ZM41.1094 57.6775C40.2372 58.814 39.8364 60.4298 39.8364 62.4546H40.763C40.763 60.5314 41.1471 59.1505 41.8445 58.2417L41.1094 57.6775ZM39.8364 62.4546C39.8364 64.4853 40.2635 66.1142 41.1857 67.2736L41.9109 66.6968C41.1684 65.7634 40.763 64.3719 40.763 62.4546H39.8364ZM41.1857 67.2736C42.1075 68.4324 43.3358 69.0182 44.8304 69.0182V68.0916C43.6137 68.0916 42.654 67.631 41.9109 66.6968L41.1857 67.2736ZM44.8304 69.0182C46.2635 69.0182 47.7325 68.6659 49.2332 67.9771L48.8467 67.135C47.4459 67.7779 46.1085 68.0916 44.8304 68.0916V69.0182ZM48.5947 67.6842L49.2726 70.0387L50.163 69.7824L49.4852 67.4279L48.5947 67.6842ZM49.5252 69.4892C47.9166 70.2245 46.2934 70.5888 44.652 70.5888V71.5154C46.4354 71.5154 48.1894 71.1186 49.9104 70.3319L49.5252 69.4892ZM44.652 70.5888C42.567 70.5888 40.8883 69.8447 39.5772 68.3557L38.8818 68.9681C40.377 70.6661 42.3134 71.5154 44.652 71.5154V70.5888ZM39.582 68.3613C38.2869 66.8429 37.6237 64.8869 37.6237 62.4546H36.6971C36.6971 65.0643 37.4132 67.2465 38.877 68.9626L39.582 68.3613ZM37.6237 62.4546C37.6237 59.9967 38.2877 58.0564 39.5775 56.5887L38.8815 55.9771C37.4124 57.6487 36.6971 59.8229 36.6971 62.4546H37.6237ZM39.5749 56.5917C40.8853 55.1258 42.5645 54.3917 44.652 54.3917V53.4651C42.3159 53.4651 40.3801 54.3006 38.8841 55.9741L39.5749 56.5917ZM56.1431 50.5393L56.4708 50.8671L56.4805 50.8568L56.1431 50.5393ZM53.3605 50.5393L53.0229 50.857L53.0329 50.8669L53.3605 50.5393ZM53.3605 47.721L53.6881 48.0486L53.6881 48.0486L53.3605 47.721ZM56.1074 47.721L55.77 48.0386L55.7797 48.0488L55.7899 48.0584L56.1074 47.721ZM53.2535 54.3565V53.8932H52.7901V54.3565H53.2535ZM56.2858 54.3565H56.7491V53.8932H56.2858V54.3565ZM56.2858 70.624V71.0873H56.7491V70.624H56.2858ZM53.2535 70.624H52.7901V71.0873H53.2535V70.624ZM55.8155 50.2117C55.5234 50.5037 55.1782 50.6468 54.7518 50.6468V51.5734C55.4194 51.5734 56.0017 51.3359 56.4707 50.8669L55.8155 50.2117ZM54.7518 50.6468C54.3254 50.6468 53.9801 50.5037 53.6881 50.2117L53.0329 50.8669C53.5019 51.3359 54.0842 51.5734 54.7518 51.5734V50.6468ZM53.6979 50.2218C53.3969 49.902 53.253 49.5394 53.253 49.1123H52.3264C52.3264 49.7793 52.563 50.368 53.0231 50.8568L53.6979 50.2218ZM53.253 49.1123C53.253 48.6859 53.396 48.3407 53.6881 48.0486L53.0329 47.3934C52.5639 47.8624 52.3264 48.4447 52.3264 49.1123H53.253ZM53.6881 48.0486C54.0144 47.7223 54.3634 47.5779 54.7518 47.5779V46.6513C54.0937 46.6513 53.5152 46.9111 53.0329 47.3934L53.6881 48.0486ZM54.7518 47.5779C55.1388 47.5779 55.4711 47.7209 55.77 48.0386L56.4448 47.4035C55.9827 46.9125 55.4112 46.6513 54.7518 46.6513V47.5779ZM55.7899 48.0584C56.1027 48.3529 56.2506 48.6952 56.2506 49.1123H57.1772C57.1772 48.4354 56.9207 47.8502 56.4249 47.3836L55.7899 48.0584ZM56.2506 49.1123C56.2506 49.5394 56.1067 49.902 55.8057 50.2218L56.4805 50.8568C56.9405 50.368 57.1772 49.7793 57.1772 49.1123H56.2506ZM53.2535 54.8198H56.2858V53.8932H53.2535V54.8198ZM55.8225 54.3565V70.624H56.7491V54.3565H55.8225ZM56.2858 70.1607H53.2535V71.0873H56.2858V70.1607ZM53.7168 70.624V54.3565H52.7901V70.624H53.7168ZM72.0937 66.8069L71.7327 66.5166L71.7327 66.5166L72.0937 66.8069ZM72.2721 58.138L71.9064 58.4224L71.9103 58.4274L72.2721 58.138ZM66.7783 57.0321L66.9592 57.4586L66.9592 57.4586L66.7783 57.0321ZM64.6735 58.352L64.3665 58.005L64.2102 58.1433V58.352H64.6735ZM64.6735 67.9841H64.2102V68.3028L64.5078 68.4168L64.6735 67.9841ZM64.6735 78.8291V79.2925H65.1368V78.8291H64.6735ZM61.7125 78.8291H61.2492V79.2925H61.7125V78.8291ZM61.7125 54.3565V53.8932H61.2492V54.3565H61.7125ZM63.6389 54.3565L64.0626 54.1691L63.9406 53.8932H63.6389V54.3565ZM64.4594 56.2115L64.0357 56.399L64.2907 56.9756L64.7648 56.5599L64.4594 56.2115ZM74.7693 56.2115L75.1289 55.9194L75.1289 55.9194L74.7693 56.2115ZM74.4483 68.4479L74.0908 68.1532L74.0903 68.1537L74.4483 68.4479ZM64.6735 70.5527L64.7939 70.1053L64.2102 69.9481V70.5527H64.6735ZM67.9555 69.0896C69.8565 69.0896 71.3783 68.4363 72.4548 67.0971L71.7327 66.5166C70.859 67.6033 69.622 68.1629 67.9555 68.1629V69.0896ZM72.4548 67.0971C73.5038 65.7924 74.0197 64.212 74.0197 62.3832H73.0931C73.0931 64.0267 72.6339 65.3955 71.7327 66.5166L72.4548 67.0971ZM74.0197 62.3832C74.0197 60.5484 73.5725 59.0218 72.6339 57.8485L71.9103 58.4274C72.6841 59.3946 73.0931 60.6982 73.0931 62.3832H74.0197ZM72.6378 57.8535C71.7092 56.6595 70.4148 56.0693 68.8117 56.0693V56.9959C70.1577 56.9959 71.1703 57.4759 71.9064 58.4224L72.6378 57.8535ZM68.8117 56.0693C68.1559 56.0693 67.4137 56.2592 66.5973 56.6055L66.9592 57.4586C67.7124 57.139 68.3259 56.9959 68.8117 56.9959V56.0693ZM66.5973 56.6055C65.768 56.9574 65.0235 57.4238 64.3665 58.005L64.9804 58.699C65.5601 58.1862 66.2189 57.7726 66.9592 57.4586L66.5973 56.6055ZM64.2102 58.352V67.9841H65.1368V58.352H64.2102ZM64.5078 68.4168C65.6722 68.8627 66.8223 69.0896 67.9555 69.0896V68.1629C66.9482 68.1629 65.9103 67.9617 64.8392 67.5515L64.5078 68.4168ZM64.6735 78.3658H61.7125V79.2925H64.6735V78.3658ZM62.1758 78.8291V54.3565H61.2492V78.8291H62.1758ZM61.7125 54.8198H63.6389V53.8932H61.7125V54.8198ZM63.2152 54.5439L64.0357 56.399L64.8831 56.0241L64.0626 54.1691L63.2152 54.5439ZM64.7648 56.5599C66.4329 55.0975 68.1712 54.3917 69.989 54.3917V53.4651C67.9063 53.4651 65.9583 54.2813 64.154 55.8632L64.7648 56.5599ZM69.989 54.3917C71.7987 54.3917 73.2604 55.0892 74.4098 56.5037L75.1289 55.9194C73.8048 54.2897 72.0796 53.4651 69.989 53.4651V54.3917ZM74.4098 56.5037C75.564 57.9243 76.1611 59.7988 76.1611 62.1692H77.0877C77.0877 59.6403 76.4481 57.543 75.1289 55.9194L74.4098 56.5037ZM76.1611 62.1692C76.1611 64.4949 75.4686 66.4817 74.0908 68.1532L74.8058 68.7426C76.3295 66.8941 77.0877 64.6952 77.0877 62.1692H76.1611ZM74.0903 68.1537C72.768 69.7626 70.8659 70.5888 68.3123 70.5888V71.5154C71.086 71.5154 73.2746 70.6055 74.8062 68.7421L74.0903 68.1537ZM68.3123 70.5888C67.1668 70.5888 65.9943 70.4285 64.7939 70.1053L64.553 71C65.826 71.3428 67.0794 71.5154 68.3123 71.5154V70.5888ZM64.2102 70.5527V78.8291H65.1368V70.5527H64.2102ZM92.3649 67.0209L92.782 66.8193L92.5618 66.3637L92.1274 66.6231L92.3649 67.0209ZM93.3995 69.1614L93.6467 69.5532L93.9967 69.3324L93.8166 68.9598L93.3995 69.1614ZM81.5912 68.9116L81.2499 69.225L81.2525 69.2278L81.5912 68.9116ZM81.6626 56.2829L82.0083 56.5914L82.0106 56.5887L81.6626 56.2829ZM92.0438 55.8548L91.7038 56.1696L91.7087 56.1747L92.0438 55.8548ZM93.2924 58.138L92.8528 58.2845L92.8561 58.2938L93.2924 58.138ZM93.8276 61.6697L94.1744 61.9769L94.2909 61.8454V61.6697H93.8276ZM92.7217 62.9183V63.3816H92.9302L93.0685 63.2255L92.7217 62.9183ZM82.6258 62.9183V62.455H82.1536L82.1626 62.9271L82.6258 62.9183ZM90.8309 60.6709V61.1342H91.2942V60.6709H90.8309ZM89.7964 57.4601L90.1489 57.1595L90.1489 57.1595L89.7964 57.4601ZM84.1955 57.4601L84.5231 57.7878L84.5279 57.7828L84.1955 57.4601ZM82.7685 60.6709L82.3086 60.6144L82.2448 61.1342H82.7685V60.6709ZM87.2278 69.0182C89.0368 69.0182 90.8303 68.4771 92.6025 67.4187L92.1274 66.6231C90.4748 67.6101 88.8436 68.0916 87.2278 68.0916V69.0182ZM91.9478 67.2225L92.9823 69.363L93.8166 68.9598L92.782 66.8193L91.9478 67.2225ZM93.1522 68.7695C91.2258 69.985 89.1706 70.5888 86.9781 70.5888V71.5154C89.3519 71.5154 91.5776 70.8587 93.6467 69.5532L93.1522 68.7695ZM86.9781 70.5888C84.825 70.5888 83.1601 69.9136 81.9299 68.5955L81.2525 69.2278C82.686 70.7637 84.6124 71.5154 86.9781 71.5154V70.5888ZM81.9325 68.5983C80.7046 67.2607 80.0568 65.3079 80.0568 62.6686H79.1302C79.1302 65.4518 79.8142 67.661 81.2499 69.225L81.9325 68.5983ZM80.0568 62.6686C80.0568 60.0352 80.7255 58.0289 82.0083 56.5914L81.3169 55.9744C79.8408 57.6286 79.1302 59.8795 79.1302 62.6686H80.0568ZM82.0106 56.5887C83.2933 55.1291 84.9927 54.3917 87.1564 54.3917V53.4651C84.7539 53.4651 82.7907 54.2973 81.3146 55.9771L82.0106 56.5887ZM87.1564 54.3917C89.1221 54.3917 90.6184 54.9973 91.7039 56.1696L92.3838 55.54C91.091 54.1438 89.329 53.4651 87.1564 53.4651V54.3917ZM91.7087 56.1747C92.1445 56.6313 92.5325 57.3231 92.8529 58.2845L93.732 57.9915C93.3865 56.955 92.942 56.1248 92.379 55.5349L91.7087 56.1747ZM92.8561 58.2938C93.1908 59.2309 93.3643 60.3531 93.3643 61.6697H94.2909C94.2909 60.2751 94.1076 59.0428 93.7288 57.9821L92.8561 58.2938ZM93.4807 61.3625L92.3748 62.6112L93.0685 63.2255L94.1744 61.9769L93.4807 61.3625ZM92.7217 62.455H82.6258V63.3816H92.7217V62.455ZM82.1626 62.9271C82.1992 64.856 82.6109 66.3854 83.4709 67.4388C84.3464 68.511 85.6263 69.0182 87.2278 69.0182V68.0916C85.8327 68.0916 84.8472 67.6594 84.1887 66.8528C83.5147 66.0273 83.1237 64.7384 83.089 62.9095L82.1626 62.9271ZM91.2942 60.6709C91.2942 59.2576 90.9268 58.0715 90.1489 57.1595L89.4439 57.7608C90.0454 58.466 90.3676 59.4204 90.3676 60.6709H91.2942ZM90.1489 57.1595C89.364 56.2393 88.3152 55.7839 87.0494 55.7839V56.7105C88.0668 56.7105 88.8493 57.0638 89.4439 57.7608L90.1489 57.1595ZM87.0494 55.7839C85.8052 55.7839 84.7343 56.2398 83.863 57.1375L84.5279 57.7828C85.2263 57.0633 86.058 56.7105 87.0494 56.7105V55.7839ZM83.8679 57.1325C82.9943 58.0061 82.4847 59.1804 82.3086 60.6144L83.2283 60.7273C83.3852 59.45 83.8269 58.4839 84.5231 57.7878L83.8679 57.1325ZM82.7685 61.1342H90.8309V60.2075H82.7685V61.1342ZM109.227 67.0209L109.644 66.8193L109.424 66.3637L108.989 66.6231L109.227 67.0209ZM110.261 69.1614L110.508 69.5532L110.858 69.3324L110.678 68.9598L110.261 69.1614ZM98.453 68.9116L98.1117 69.225L98.1143 69.2278L98.453 68.9116ZM98.5243 56.2829L98.87 56.5914L98.8724 56.5887L98.5243 56.2829ZM108.906 55.8548L108.566 56.1696L108.57 56.1747L108.906 55.8548ZM110.154 58.138L109.715 58.2845L109.718 58.2938L110.154 58.138ZM110.689 61.6697L111.036 61.9769L111.153 61.8454V61.6697H110.689ZM109.583 62.9183V63.3816H109.792L109.93 63.2255L109.583 62.9183ZM99.4875 62.9183V62.455H99.0154L99.0243 62.9271L99.4875 62.9183ZM107.693 60.6709V61.1342H108.156V60.6709H107.693ZM106.658 57.4601L107.011 57.1595L107.011 57.1595L106.658 57.4601ZM101.057 57.4601L101.385 57.7878L101.39 57.7828L101.057 57.4601ZM99.6302 60.6709L99.1704 60.6144L99.1066 61.1342H99.6302V60.6709ZM104.09 69.0182C105.899 69.0182 107.692 68.4771 109.464 67.4187L108.989 66.6231C107.337 67.6101 105.705 68.0916 104.09 68.0916V69.0182ZM108.81 67.2225L109.844 69.363L110.678 68.9598L109.644 66.8193L108.81 67.2225ZM110.014 68.7695C108.088 69.985 106.032 70.5888 103.84 70.5888V71.5154C106.214 71.5154 108.439 70.8587 110.508 69.5532L110.014 68.7695ZM103.84 70.5888C101.687 70.5888 100.022 69.9136 98.7917 68.5955L98.1143 69.2278C99.5478 70.7637 101.474 71.5154 103.84 71.5154V70.5888ZM98.7943 68.5983C97.5663 67.2607 96.9185 65.3079 96.9185 62.6686H95.9919C95.9919 65.4518 96.6759 67.661 98.1117 69.225L98.7943 68.5983ZM96.9185 62.6686C96.9185 60.0352 97.5873 58.0289 98.87 56.5914L98.1786 55.9744C96.7026 57.6286 95.9919 59.8795 95.9919 62.6686H96.9185ZM98.8724 56.5887C100.155 55.1291 101.854 54.3917 104.018 54.3917V53.4651C101.616 53.4651 99.6525 54.2973 98.1763 55.9771L98.8724 56.5887ZM104.018 54.3917C105.984 54.3917 107.48 54.9973 108.566 56.1696L109.246 55.54C107.953 54.1438 106.191 53.4651 104.018 53.4651V54.3917ZM108.57 56.1747C109.006 56.6313 109.394 57.3231 109.715 58.2845L110.594 57.9915C110.248 56.955 109.804 56.1248 109.241 55.5349L108.57 56.1747ZM109.718 58.2938C110.053 59.2309 110.226 60.3531 110.226 61.6697H111.153C111.153 60.2751 110.969 59.0428 110.591 57.9821L109.718 58.2938ZM110.342 61.3625L109.237 62.6112L109.93 63.2255L111.036 61.9769L110.342 61.3625ZM109.583 62.455H99.4875V63.3816H109.583V62.455ZM99.0243 62.9271C99.0609 64.856 99.4726 66.3854 100.333 67.4388C101.208 68.511 102.488 69.0182 104.09 69.0182V68.0916C102.694 68.0916 101.709 67.6594 101.05 66.8528C100.376 66.0273 99.9855 64.7384 99.9508 62.9095L99.0243 62.9271ZM108.156 60.6709C108.156 59.2576 107.789 58.0715 107.011 57.1595L106.306 57.7608C106.907 58.466 107.229 59.4204 107.229 60.6709H108.156ZM107.011 57.1595C106.226 56.2393 105.177 55.7839 103.911 55.7839V56.7105C104.929 56.7105 105.711 57.0638 106.306 57.7608L107.011 57.1595ZM103.911 55.7839C102.667 55.7839 101.596 56.2398 100.725 57.1375L101.39 57.7828C102.088 57.0633 102.92 56.7105 103.911 56.7105V55.7839ZM100.73 57.1325C99.8561 58.0061 99.3465 59.1804 99.1704 60.6144L100.09 60.7273C100.247 59.45 100.689 58.4839 101.385 57.7878L100.73 57.1325ZM99.6302 61.1342H107.693V60.2075H99.6302V61.1342Z" fill="black" mask="url(#path-2-outside-1_123_505)"/>
<path d="M76.7139 68.7158C78.1412 72.9176 85.895 76.1287 95.2462 76.1287C104.597 76.1287 112.351 72.9176 113.778 68.7158" stroke="black" stroke-width="1.85322"/>
<rect x="50.4619" y="44.6924" width="9" height="4.15385" fill="white"/>
<mask id="mask0_123_505" style="mask-type:alpha" maskUnits="userSpaceOnUse" x="2" y="2" width="117" height="117">
<circle cx="60.4992" cy="60.4992" r="58.4992" fill="white"/>
</mask>
<g mask="url(#mask0_123_505)">
<path d="M2 81.6152C6.50549 94.9574 30.9816 105.154 60.5 105.154C90.0184 105.154 114.495 94.9574 119 81.6152" stroke="black" stroke-width="6.79477"/>
</g>
</svg>
