<svg width="413" height="114" viewBox="0 0 413 114" fill="none" xmlns="http://www.w3.org/2000/svg">
<mask id="path-1-outside-1_10_495" maskUnits="userSpaceOnUse" x="8" y="-11" width="391" height="127" fill="black">
<rect fill="white" x="8" y="-11" width="391" height="127"/>
<path d="M10.1282 19.5213H17.527L20.9524 30.4825H21.5005C26.5243 23.9971 33.4207 20.0693 42.1897 18.6992L43.4228 29.5234C39.1297 29.7974 34.9736 30.8935 30.9545 32.8117C26.9354 34.7299 23.8754 37.2875 21.7745 40.4845V82H10.1282V19.5213ZM78.4204 74.0531C84.9971 74.0531 91.5739 72.0893 98.1506 68.1615L102.124 76.3824C94.4512 81.2236 86.2303 83.6442 77.4613 83.6442C68.7837 83.6442 61.8873 80.9039 56.7721 75.4233C51.6569 69.8514 49.0993 61.8588 49.0993 51.4457C49.0993 41.0326 51.7482 32.8574 57.0461 26.9201C62.344 20.8914 69.3775 17.8771 78.1464 17.8771C86.0933 17.8771 92.3503 20.3434 96.9174 25.2759C98.8356 27.2855 100.434 30.2084 101.713 34.0448C103.083 37.8813 103.768 42.4027 103.768 47.6093L99.5207 52.4048H60.7455C61.0196 66.837 66.9112 74.0531 78.4204 74.0531ZM92.2589 43.7729C92.2589 38.6577 90.9345 34.5472 88.2855 31.4416C85.6366 28.3359 82.1198 26.7831 77.7354 26.7831C73.4422 26.7831 69.7885 28.3359 66.7742 31.4416C63.7599 34.4559 61.933 38.5663 61.2936 43.7729H92.2589ZM142.633 17.8771C148.753 17.8771 154.965 19.2473 161.267 21.9876L157.842 30.4825C153.183 28.4729 148.205 27.4681 142.907 27.4681C137.701 27.4681 133.545 29.432 130.439 33.3598C127.425 37.2875 125.917 43.0421 125.917 50.6236C125.917 58.2051 127.516 64.0054 130.713 68.0245C133.91 72.0436 138.112 74.0531 143.318 74.0531C148.525 74.0531 153.914 72.7743 159.486 70.2167L162.089 79.2597C155.695 82.1827 149.21 83.6442 142.633 83.6442C134.138 83.6442 127.196 80.5842 121.807 74.4642C116.509 68.2529 113.86 60.306 113.86 50.6236C113.86 40.8499 116.509 32.9487 121.807 26.9201C127.196 20.8914 134.138 17.8771 142.633 17.8771ZM186.767 4.86072C185.305 6.3222 183.524 7.05295 181.423 7.05295C179.322 7.05295 177.541 6.3222 176.08 4.86072C174.618 3.30788 173.888 1.48102 173.888 -0.619876C173.888 -2.72077 174.618 -4.50196 176.08 -5.96345C177.633 -7.51628 179.414 -8.2927 181.423 -8.2927C183.433 -8.2927 185.168 -7.51628 186.63 -5.96345C188.183 -4.50196 188.959 -2.72077 188.959 -0.619876C188.959 1.48102 188.228 3.30788 186.767 4.86072ZM175.669 19.5213H187.315V82H175.669V19.5213ZM232.135 74.3272C238.986 74.3272 244.284 71.9979 248.029 67.3394C251.774 62.6809 253.646 57.0177 253.646 50.3496C253.646 43.5902 252.002 38.1553 248.714 34.0448C245.517 29.9344 241.087 27.8792 235.423 27.8792C233.231 27.8792 230.628 28.5186 227.613 29.7974C224.599 31.0762 221.904 32.766 219.53 34.8669V71.8609C223.823 73.5051 228.024 74.3272 232.135 74.3272ZM219.53 113.513H208.157V19.5213H215.556L218.707 26.6461C225.375 20.8001 232.455 17.8771 239.945 17.8771C247.435 17.8771 253.555 20.8001 258.305 26.6461C263.055 32.492 265.429 40.1192 265.429 49.5275C265.429 58.8445 262.643 66.8827 257.072 73.6421C251.591 80.3102 243.735 83.6442 233.505 83.6442C228.938 83.6442 224.279 83.0048 219.53 81.726V113.513ZM306.154 74.0531C312.731 74.0531 319.307 72.0893 325.884 68.1615L329.857 76.3824C322.185 81.2236 313.964 83.6442 305.195 83.6442C296.517 83.6442 289.621 80.9039 284.506 75.4233C279.39 69.8514 276.833 61.8588 276.833 51.4457C276.833 41.0326 279.482 32.8574 284.78 26.9201C290.077 20.8914 297.111 17.8771 305.88 17.8771C313.827 17.8771 320.084 20.3434 324.651 25.2759C326.569 27.2855 328.168 30.2084 329.446 34.0448C330.817 37.8813 331.502 42.4027 331.502 47.6093L327.254 52.4048H288.479C288.753 66.837 294.645 74.0531 306.154 74.0531ZM319.992 43.7729C319.992 38.6577 318.668 34.5472 316.019 31.4416C313.37 28.3359 309.853 26.7831 305.469 26.7831C301.176 26.7831 297.522 28.3359 294.508 31.4416C291.493 34.4559 289.666 38.5663 289.027 43.7729H319.992ZM370.915 74.0531C377.491 74.0531 384.068 72.0893 390.645 68.1615L394.618 76.3824C386.945 81.2236 378.725 83.6442 369.956 83.6442C361.278 83.6442 354.382 80.9039 349.266 75.4233C344.151 69.8514 341.594 61.8588 341.594 51.4457C341.594 41.0326 344.243 32.8574 349.54 26.9201C354.838 20.8914 361.872 17.8771 370.641 17.8771C378.588 17.8771 384.845 20.3434 389.412 25.2759C391.33 27.2855 392.928 30.2084 394.207 34.0448C395.577 37.8813 396.262 42.4027 396.262 47.6093L392.015 52.4048H353.24C353.514 66.837 359.405 74.0531 370.915 74.0531ZM384.753 43.7729C384.753 38.6577 383.429 34.5472 380.78 31.4416C378.131 28.3359 374.614 26.7831 370.23 26.7831C365.937 26.7831 362.283 28.3359 359.268 31.4416C356.254 34.4559 354.427 38.5663 353.788 43.7729H384.753Z"/>
</mask>
<path d="M10.1282 19.5213H17.527L20.9524 30.4825H21.5005C26.5243 23.9971 33.4207 20.0693 42.1897 18.6992L43.4228 29.5234C39.1297 29.7974 34.9736 30.8935 30.9545 32.8117C26.9354 34.7299 23.8754 37.2875 21.7745 40.4845V82H10.1282V19.5213ZM78.4204 74.0531C84.9971 74.0531 91.5739 72.0893 98.1506 68.1615L102.124 76.3824C94.4512 81.2236 86.2303 83.6442 77.4613 83.6442C68.7837 83.6442 61.8873 80.9039 56.7721 75.4233C51.6569 69.8514 49.0993 61.8588 49.0993 51.4457C49.0993 41.0326 51.7482 32.8574 57.0461 26.9201C62.344 20.8914 69.3775 17.8771 78.1464 17.8771C86.0933 17.8771 92.3503 20.3434 96.9174 25.2759C98.8356 27.2855 100.434 30.2084 101.713 34.0448C103.083 37.8813 103.768 42.4027 103.768 47.6093L99.5207 52.4048H60.7455C61.0196 66.837 66.9112 74.0531 78.4204 74.0531ZM92.2589 43.7729C92.2589 38.6577 90.9345 34.5472 88.2855 31.4416C85.6366 28.3359 82.1198 26.7831 77.7354 26.7831C73.4422 26.7831 69.7885 28.3359 66.7742 31.4416C63.7599 34.4559 61.933 38.5663 61.2936 43.7729H92.2589ZM142.633 17.8771C148.753 17.8771 154.965 19.2473 161.267 21.9876L157.842 30.4825C153.183 28.4729 148.205 27.4681 142.907 27.4681C137.701 27.4681 133.545 29.432 130.439 33.3598C127.425 37.2875 125.917 43.0421 125.917 50.6236C125.917 58.2051 127.516 64.0054 130.713 68.0245C133.91 72.0436 138.112 74.0531 143.318 74.0531C148.525 74.0531 153.914 72.7743 159.486 70.2167L162.089 79.2597C155.695 82.1827 149.21 83.6442 142.633 83.6442C134.138 83.6442 127.196 80.5842 121.807 74.4642C116.509 68.2529 113.86 60.306 113.86 50.6236C113.86 40.8499 116.509 32.9487 121.807 26.9201C127.196 20.8914 134.138 17.8771 142.633 17.8771ZM186.767 4.86072C185.305 6.3222 183.524 7.05295 181.423 7.05295C179.322 7.05295 177.541 6.3222 176.08 4.86072C174.618 3.30788 173.888 1.48102 173.888 -0.619876C173.888 -2.72077 174.618 -4.50196 176.08 -5.96345C177.633 -7.51628 179.414 -8.2927 181.423 -8.2927C183.433 -8.2927 185.168 -7.51628 186.63 -5.96345C188.183 -4.50196 188.959 -2.72077 188.959 -0.619876C188.959 1.48102 188.228 3.30788 186.767 4.86072ZM175.669 19.5213H187.315V82H175.669V19.5213ZM232.135 74.3272C238.986 74.3272 244.284 71.9979 248.029 67.3394C251.774 62.6809 253.646 57.0177 253.646 50.3496C253.646 43.5902 252.002 38.1553 248.714 34.0448C245.517 29.9344 241.087 27.8792 235.423 27.8792C233.231 27.8792 230.628 28.5186 227.613 29.7974C224.599 31.0762 221.904 32.766 219.53 34.8669V71.8609C223.823 73.5051 228.024 74.3272 232.135 74.3272ZM219.53 113.513H208.157V19.5213H215.556L218.707 26.6461C225.375 20.8001 232.455 17.8771 239.945 17.8771C247.435 17.8771 253.555 20.8001 258.305 26.6461C263.055 32.492 265.429 40.1192 265.429 49.5275C265.429 58.8445 262.643 66.8827 257.072 73.6421C251.591 80.3102 243.735 83.6442 233.505 83.6442C228.938 83.6442 224.279 83.0048 219.53 81.726V113.513ZM306.154 74.0531C312.731 74.0531 319.307 72.0893 325.884 68.1615L329.857 76.3824C322.185 81.2236 313.964 83.6442 305.195 83.6442C296.517 83.6442 289.621 80.9039 284.506 75.4233C279.39 69.8514 276.833 61.8588 276.833 51.4457C276.833 41.0326 279.482 32.8574 284.78 26.9201C290.077 20.8914 297.111 17.8771 305.88 17.8771C313.827 17.8771 320.084 20.3434 324.651 25.2759C326.569 27.2855 328.168 30.2084 329.446 34.0448C330.817 37.8813 331.502 42.4027 331.502 47.6093L327.254 52.4048H288.479C288.753 66.837 294.645 74.0531 306.154 74.0531ZM319.992 43.7729C319.992 38.6577 318.668 34.5472 316.019 31.4416C313.37 28.3359 309.853 26.7831 305.469 26.7831C301.176 26.7831 297.522 28.3359 294.508 31.4416C291.493 34.4559 289.666 38.5663 289.027 43.7729H319.992ZM370.915 74.0531C377.491 74.0531 384.068 72.0893 390.645 68.1615L394.618 76.3824C386.945 81.2236 378.725 83.6442 369.956 83.6442C361.278 83.6442 354.382 80.9039 349.266 75.4233C344.151 69.8514 341.594 61.8588 341.594 51.4457C341.594 41.0326 344.243 32.8574 349.54 26.9201C354.838 20.8914 361.872 17.8771 370.641 17.8771C378.588 17.8771 384.845 20.3434 389.412 25.2759C391.33 27.2855 392.928 30.2084 394.207 34.0448C395.577 37.8813 396.262 42.4027 396.262 47.6093L392.015 52.4048H353.24C353.514 66.837 359.405 74.0531 370.915 74.0531ZM384.753 43.7729C384.753 38.6577 383.429 34.5472 380.78 31.4416C378.131 28.3359 374.614 26.7831 370.23 26.7831C365.937 26.7831 362.283 28.3359 359.268 31.4416C356.254 34.4559 354.427 38.5663 353.788 43.7729H384.753Z" fill="black"/>
<path d="M10.1282 19.5213V17.7419H8.34883V19.5213H10.1282ZM17.527 19.5213L19.2255 18.9905L18.8352 17.7419H17.527V19.5213ZM20.9524 30.4825L19.254 31.0132L19.6442 32.2619H20.9524V30.4825ZM21.5005 30.4825V32.2619H22.3729L22.9072 31.5722L21.5005 30.4825ZM42.1897 18.6992L43.9577 18.4978L43.7477 16.6548L41.915 16.9411L42.1897 18.6992ZM43.4228 29.5234L43.5362 31.2992L45.4025 31.18L45.1908 29.3219L43.4228 29.5234ZM21.7745 40.4845L20.2874 39.5073L19.9951 39.9522V40.4845H21.7745ZM21.7745 82V83.7794H23.5539V82H21.7745ZM10.1282 82H8.34883V83.7794H10.1282V82ZM10.1282 21.3007H17.527V17.7419H10.1282V21.3007ZM15.8286 20.052L19.254 31.0132L22.6508 29.9517L19.2255 18.9905L15.8286 20.052ZM20.9524 32.2619H21.5005V28.7031H20.9524V32.2619ZM22.9072 31.5722C27.6289 25.4769 34.1041 21.7636 42.4644 20.4573L41.915 16.9411C32.7374 18.3751 25.4198 22.5173 20.0938 29.3928L22.9072 31.5722ZM40.4217 18.9006L41.6548 29.7248L45.1908 29.3219L43.9577 18.4978L40.4217 18.9006ZM43.3095 27.7476C38.7818 28.0366 34.4046 29.1934 30.188 31.2058L31.7209 34.4176C35.5425 32.5937 39.4776 31.5582 43.5362 31.2992L43.3095 27.7476ZM30.188 31.2058C25.9247 33.2406 22.5942 35.997 20.2874 39.5073L23.2616 41.4618C25.1566 38.578 27.9461 36.2192 31.7209 34.4176L30.188 31.2058ZM19.9951 40.4845V82H23.5539V40.4845H19.9951ZM21.7745 80.2206H10.1282V83.7794H21.7745V80.2206ZM11.9077 82V19.5213H8.34883V82H11.9077ZM98.1506 68.1615L99.7527 67.3872L98.9069 65.6372L97.2382 66.6338L98.1506 68.1615ZM102.124 76.3824L103.074 77.8873L104.418 77.0391L103.726 75.6081L102.124 76.3824ZM56.7721 75.4233L55.4613 76.6267L55.4663 76.6321L55.4713 76.6374L56.7721 75.4233ZM57.0461 26.9201L58.3739 28.1048L58.3828 28.0947L57.0461 26.9201ZM96.9174 25.2759L95.6118 26.4849L95.6209 26.4948L95.6303 26.5045L96.9174 25.2759ZM101.713 34.0448L100.025 34.6075L100.031 34.6255L100.037 34.6433L101.713 34.0448ZM103.768 47.6093L105.1 48.7891L105.548 48.284V47.6093H103.768ZM99.5207 52.4048V54.1842H100.322L100.853 53.5846L99.5207 52.4048ZM60.7455 52.4048V50.6254H58.932L58.9665 52.4386L60.7455 52.4048ZM92.2589 43.7729V45.5523H94.0383V43.7729H92.2589ZM88.2855 31.4416L89.6393 30.2868H89.6393L88.2855 31.4416ZM66.7742 31.4416L68.0324 32.6998L68.0418 32.6904L68.0511 32.6809L66.7742 31.4416ZM61.2936 43.7729L59.5275 43.556L59.2823 45.5523H61.2936V43.7729ZM78.4204 75.8326C85.3681 75.8326 92.2565 73.7542 99.0629 69.6892L97.2382 66.6338C90.8913 70.4243 84.6262 72.2737 78.4204 72.2737V75.8326ZM96.5485 68.9359L100.522 77.1567L103.726 75.6081L99.7527 67.3872L96.5485 68.9359ZM101.174 74.8775C93.7755 79.5459 85.8822 81.8648 77.4613 81.8648V85.4236C86.5784 85.4236 95.1268 82.9013 103.074 77.8873L101.174 74.8775ZM77.4613 81.8648C69.1919 81.8648 62.7977 79.2714 58.073 74.2092L55.4713 76.6374C60.9769 82.5364 68.3755 85.4236 77.4613 85.4236V81.8648ZM58.0829 74.2199C53.3668 69.0827 50.8787 61.5825 50.8787 51.4457H47.3199C47.3199 62.1352 49.947 70.62 55.4613 76.6267L58.0829 74.2199ZM50.8787 51.4457C50.8787 41.3317 53.4472 33.6261 58.3738 28.1048L55.7185 25.7354C50.0493 32.0887 47.3199 40.7335 47.3199 51.4457H50.8787ZM58.3828 28.0947C63.3092 22.4888 69.836 19.6565 78.1464 19.6565V16.0977C68.919 16.0977 61.3789 19.2941 55.7095 25.7455L58.3828 28.0947ZM78.1464 19.6565C85.6959 19.6565 91.4428 21.9824 95.6118 26.4849L98.2231 24.067C93.2577 18.7044 86.4906 16.0977 78.1464 16.0977V19.6565ZM95.6303 26.5045C97.3042 28.2582 98.7941 30.9154 100.025 34.6075L103.401 33.4821C102.074 29.5015 100.367 26.3127 98.2046 24.0473L95.6303 26.5045ZM100.037 34.6433C101.323 38.2427 101.989 42.5527 101.989 47.6093H105.548C105.548 42.2528 104.844 37.5199 103.389 33.4464L100.037 34.6433ZM102.436 46.4295L98.1887 51.225L100.853 53.5846L105.1 48.7891L102.436 46.4295ZM99.5207 50.6254H60.7455V54.1842H99.5207V50.6254ZM58.9665 52.4386C59.1071 59.8466 60.6883 65.7207 63.9914 69.7664C67.3537 73.8846 72.2695 75.8326 78.4204 75.8326V72.2737C73.0622 72.2737 69.2775 70.6136 66.7481 67.5157C64.1597 64.3453 62.658 59.3953 62.5246 52.371L58.9665 52.4386ZM94.0383 43.7729C94.0383 38.3449 92.627 33.7897 89.6393 30.2868L86.9317 32.5963C89.2419 35.3048 90.4795 38.9705 90.4795 43.7729H94.0383ZM89.6393 30.2868C86.6249 26.7526 82.597 25.0037 77.7354 25.0037V28.5625C81.6427 28.5625 84.6482 29.9192 86.9317 32.5963L89.6393 30.2868ZM77.7354 25.0037C72.9567 25.0037 68.8437 26.7545 65.4973 30.2023L68.0511 32.6809C70.7334 29.9173 73.9278 28.5625 77.7354 28.5625V25.0037ZM65.516 30.1833C62.1611 33.5382 60.2038 38.0485 59.5275 43.556L63.0597 43.9898C63.6622 39.0841 65.3587 35.3736 68.0324 32.6998L65.516 30.1833ZM61.2936 45.5523H92.2589V41.9935H61.2936V45.5523ZM161.267 21.9876L162.918 22.653L163.565 21.0464L161.977 20.3557L161.267 21.9876ZM157.842 30.4825L157.137 32.1163L158.811 32.8383L159.492 31.1479L157.842 30.4825ZM130.439 33.3598L129.043 32.2561L129.035 32.2662L129.027 32.2764L130.439 33.3598ZM130.713 68.0245L129.32 69.1322L130.713 68.0245ZM159.486 70.2167L161.196 69.7245L160.624 67.7366L158.744 68.5996L159.486 70.2167ZM162.089 79.2597L162.829 80.878L164.223 80.2407L163.799 78.7674L162.089 79.2597ZM121.807 74.4642L120.453 75.6189L120.462 75.6296L120.472 75.6402L121.807 74.4642ZM121.807 26.9201L120.48 25.7342L120.475 25.7398L120.47 25.7455L121.807 26.9201ZM142.633 19.6565C148.481 19.6565 154.451 20.9645 160.558 23.6194L161.977 20.3557C155.478 17.5301 149.026 16.0977 142.633 16.0977V19.6565ZM159.617 21.3221L156.192 29.817L159.492 31.1479L162.918 22.653L159.617 21.3221ZM158.547 28.8486C153.656 26.7388 148.437 25.6887 142.907 25.6887V29.2476C147.974 29.2476 152.711 30.207 157.137 32.1163L158.547 28.8486ZM142.907 25.6887C137.182 25.6887 132.502 27.8822 129.043 32.2561L131.835 34.4634C134.588 30.9818 138.22 29.2476 142.907 29.2476V25.6887ZM129.027 32.2764C125.677 36.6414 124.138 42.8471 124.138 50.6236H127.697C127.697 43.2372 129.172 37.9336 131.851 34.4431L129.027 32.2764ZM124.138 50.6236C124.138 58.4229 125.778 64.6791 129.32 69.1322L132.106 66.9168C129.254 63.3317 127.697 57.9873 127.697 50.6236H124.138ZM129.32 69.1322C132.86 73.5825 137.578 75.8326 143.318 75.8326V72.2737C138.645 72.2737 134.96 70.5047 132.106 66.9168L129.32 69.1322ZM143.318 75.8326C148.823 75.8326 154.464 74.4796 160.228 71.8339L158.744 68.5996C153.364 71.0691 148.227 72.2737 143.318 72.2737V75.8326ZM157.776 70.709L160.379 79.752L163.799 78.7674L161.196 69.7245L157.776 70.709ZM161.35 77.6414C155.171 80.4657 148.937 81.8648 142.633 81.8648V85.4236C149.483 85.4236 156.219 83.8997 162.829 80.878L161.35 77.6414ZM142.633 81.8648C134.625 81.8648 128.178 79.0067 123.142 73.2882L120.472 75.6402C126.214 82.1616 133.651 85.4236 142.633 85.4236V81.8648ZM123.161 73.3094C118.187 67.4779 115.64 59.9653 115.64 50.6236H112.081C112.081 60.6467 114.831 69.0278 120.453 75.6189L123.161 73.3094ZM115.64 50.6236C115.64 41.1838 118.19 33.7316 123.144 28.0947L120.47 25.7455C114.828 32.1659 112.081 40.516 112.081 50.6236H115.64ZM123.134 28.106C128.166 22.4761 134.616 19.6565 142.633 19.6565V16.0977C133.661 16.0977 126.226 19.3068 120.48 25.7342L123.134 28.106ZM186.767 4.86072L188.025 6.11895L188.044 6.09989L188.063 6.08026L186.767 4.86072ZM176.08 4.86072L174.784 6.08026L174.803 6.09989L174.822 6.11895L176.08 4.86072ZM176.08 -5.96345L177.338 -4.70521L177.338 -4.70521L176.08 -5.96345ZM186.63 -5.96345L185.334 -4.7439L185.371 -4.70463L185.41 -4.66768L186.63 -5.96345ZM175.669 19.5213V17.7419H173.889V19.5213H175.669ZM187.315 19.5213H189.094V17.7419H187.315V19.5213ZM187.315 82V83.7794H189.094V82H187.315ZM175.669 82H173.889V83.7794H175.669V82ZM185.509 3.60248C184.387 4.72415 183.061 5.27353 181.423 5.27353V8.83236C183.987 8.83236 186.224 7.92026 188.025 6.11895L185.509 3.60248ZM181.423 5.27353C179.786 5.27353 178.46 4.72415 177.338 3.60248L174.822 6.11895C176.623 7.92026 178.859 8.83236 181.423 8.83236V5.27353ZM177.376 3.64117C176.22 2.4129 175.667 1.02023 175.667 -0.619876H172.108C172.108 1.94181 173.017 4.20286 174.784 6.08026L177.376 3.64117ZM175.667 -0.619876C175.667 -2.25756 176.216 -3.58354 177.338 -4.70521L174.822 -7.22168C173.02 -5.42037 172.108 -3.18398 172.108 -0.619876H175.667ZM177.338 -4.70521C178.591 -5.95843 179.932 -6.51329 181.423 -6.51329V-10.0721C178.896 -10.0721 176.674 -9.07413 174.822 -7.22168L177.338 -4.70521ZM181.423 -6.51329C182.91 -6.51329 184.186 -5.96393 185.334 -4.7439L187.926 -7.18299C186.151 -9.06863 183.956 -10.0721 181.423 -10.0721V-6.51329ZM185.41 -4.66768C186.612 -3.53673 187.18 -2.22184 187.18 -0.619876H190.739C190.739 -3.21969 189.754 -5.46718 187.85 -7.25921L185.41 -4.66768ZM187.18 -0.619876C187.18 1.02023 186.627 2.4129 185.471 3.64117L188.063 6.08026C189.83 4.20286 190.739 1.9418 190.739 -0.619876H187.18ZM175.669 21.3007H187.315V17.7419H175.669V21.3007ZM185.536 19.5213V82H189.094V19.5213H185.536ZM187.315 80.2206H175.669V83.7794H187.315V80.2206ZM177.448 82V19.5213H173.889V82H177.448ZM248.029 67.3394L246.642 66.2245L248.029 67.3394ZM248.714 34.0448L247.309 35.1373L247.317 35.1469L247.324 35.1564L248.714 34.0448ZM227.613 29.7974L228.308 31.4355L227.613 29.7974ZM219.53 34.8669L218.351 33.5342L217.75 34.0653V34.8669H219.53ZM219.53 71.8609H217.75V73.0849L218.893 73.5226L219.53 71.8609ZM219.53 113.513V115.293H221.309V113.513H219.53ZM208.157 113.513H206.378V115.293H208.157V113.513ZM208.157 19.5213V17.7419H206.378V19.5213H208.157ZM215.556 19.5213L217.183 18.8015L216.715 17.7419H215.556V19.5213ZM218.707 26.6461L217.08 27.3658L218.06 29.5804L219.88 27.9841L218.707 26.6461ZM258.305 26.6461L259.686 25.524L258.305 26.6461ZM257.072 73.6421L255.699 72.5103L255.697 72.5122L257.072 73.6421ZM219.53 81.726L219.992 80.0077L217.75 79.4041V81.726H219.53ZM232.135 76.1066C239.436 76.1066 245.281 73.5976 249.415 68.4543L246.642 66.2245C243.286 70.3983 238.535 72.5478 232.135 72.5478V76.1066ZM249.415 68.4543C253.444 63.4431 255.426 57.3735 255.426 50.3496H251.867C251.867 56.6618 250.103 61.9187 246.642 66.2245L249.415 68.4543ZM255.426 50.3496C255.426 43.3026 253.708 37.4395 250.103 32.9333L247.324 35.1564C250.296 38.8711 251.867 43.8779 251.867 50.3496H255.426ZM250.118 32.9524C246.552 28.3667 241.58 26.0998 235.423 26.0998V29.6586C240.593 29.6586 244.482 31.5022 247.309 35.1373L250.118 32.9524ZM235.423 26.0998C232.904 26.0998 230.054 26.829 226.918 28.1593L228.308 31.4355C231.201 30.2081 233.558 29.6586 235.423 29.6586V26.0998ZM226.918 28.1593C223.733 29.5106 220.874 31.3019 218.351 33.5342L220.709 36.1997C222.935 34.2302 225.465 32.6418 228.308 31.4355L226.918 28.1593ZM217.75 34.8669V71.8609H221.309V34.8669H217.75ZM218.893 73.5226C223.365 75.2354 227.783 76.1066 232.135 76.1066V72.5478C228.266 72.5478 224.28 71.7747 220.166 70.1992L218.893 73.5226ZM219.53 111.734H208.157V115.293H219.53V111.734ZM209.937 113.513V19.5213H206.378V113.513H209.937ZM208.157 21.3007H215.556V17.7419H208.157V21.3007ZM213.929 20.2411L217.08 27.3658L220.335 25.9263L217.183 18.8015L213.929 20.2411ZM219.88 27.9841C226.287 22.3675 232.963 19.6565 239.945 19.6565V16.0977C231.946 16.0977 224.464 19.2327 217.534 25.308L219.88 27.9841ZM239.945 19.6565C246.896 19.6565 252.51 22.3353 256.924 27.7681L259.686 25.524C254.6 19.2649 247.974 16.0977 239.945 16.0977V19.6565ZM256.924 27.7681C261.357 33.2244 263.65 40.4235 263.65 49.5275H267.209C267.209 39.8149 264.752 31.7596 259.686 25.524L256.924 27.7681ZM263.65 49.5275C263.65 58.4598 260.99 66.0908 255.699 72.5103L258.445 74.7739C264.297 67.6747 267.209 59.2292 267.209 49.5275H263.65ZM255.697 72.5122C250.618 78.6913 243.313 81.8648 233.505 81.8648V85.4236C244.158 85.4236 252.564 81.929 258.446 74.772L255.697 72.5122ZM233.505 81.8648C229.106 81.8648 224.603 81.249 219.992 80.0077L219.067 83.4442C223.956 84.7605 228.77 85.4236 233.505 85.4236V81.8648ZM217.75 81.726V113.513H221.309V81.726H217.75ZM325.884 68.1615L327.486 67.3872L326.64 65.6372L324.972 66.6338L325.884 68.1615ZM329.857 76.3824L330.807 77.8873L332.151 77.0391L331.46 75.6081L329.857 76.3824ZM284.506 75.4233L283.195 76.6267L283.2 76.6321L283.205 76.6374L284.506 75.4233ZM284.78 26.9201L286.107 28.1048L286.116 28.0947L284.78 26.9201ZM324.651 25.2759L323.345 26.4849L323.354 26.4948L323.364 26.5045L324.651 25.2759ZM329.446 34.0448L327.758 34.6075L327.764 34.6255L327.771 34.6433L329.446 34.0448ZM331.502 47.6093L332.834 48.7891L333.281 48.284V47.6093H331.502ZM327.254 52.4048V54.1842H328.055L328.586 53.5846L327.254 52.4048ZM288.479 52.4048V50.6254H286.665L286.7 52.4386L288.479 52.4048ZM319.992 43.7729V45.5523H321.772V43.7729H319.992ZM316.019 31.4416L317.373 30.2868L316.019 31.4416ZM294.508 31.4416L295.766 32.6998L295.775 32.6904L295.784 32.6809L294.508 31.4416ZM289.027 43.7729L287.261 43.556L287.016 45.5523H289.027V43.7729ZM306.154 75.8326C313.102 75.8326 319.99 73.7542 326.796 69.6892L324.972 66.6338C318.625 70.4243 312.36 72.2737 306.154 72.2737V75.8326ZM324.282 68.9359L328.255 77.1567L331.46 75.6081L327.486 67.3872L324.282 68.9359ZM328.908 74.8775C321.509 79.5459 313.616 81.8648 305.195 81.8648V85.4236C314.312 85.4236 322.86 82.9013 330.807 77.8873L328.908 74.8775ZM305.195 81.8648C296.925 81.8648 290.531 79.2714 285.806 74.2092L283.205 76.6374C288.71 82.5364 296.109 85.4236 305.195 85.4236V81.8648ZM285.816 74.2199C281.1 69.0827 278.612 61.5825 278.612 51.4457H275.053C275.053 62.1352 277.68 70.62 283.195 76.6267L285.816 74.2199ZM278.612 51.4457C278.612 41.3317 281.181 33.6261 286.107 28.1048L283.452 25.7354C277.783 32.0887 275.053 40.7335 275.053 51.4457H278.612ZM286.116 28.0947C291.043 22.4888 297.569 19.6565 305.88 19.6565V16.0977C296.652 16.0977 289.112 19.2941 283.443 25.7455L286.116 28.0947ZM305.88 19.6565C313.429 19.6565 319.176 21.9824 323.345 26.4849L325.957 24.067C320.991 18.7044 314.224 16.0977 305.88 16.0977V19.6565ZM323.364 26.5045C325.038 28.2582 326.528 30.9154 327.758 34.6075L331.134 33.4821C329.808 29.5015 328.1 26.3127 325.938 24.0473L323.364 26.5045ZM327.771 34.6433C329.056 38.2427 329.722 42.5527 329.722 47.6093H333.281C333.281 42.2528 332.577 37.5199 331.122 33.4464L327.771 34.6433ZM330.17 46.4295L325.922 51.225L328.586 53.5846L332.834 48.7891L330.17 46.4295ZM327.254 50.6254H288.479V54.1842H327.254V50.6254ZM286.7 52.4386C286.841 59.8466 288.422 65.7207 291.725 69.7664C295.087 73.8846 300.003 75.8326 306.154 75.8326V72.2737C300.796 72.2737 297.011 70.6136 294.482 67.5157C291.893 64.3453 290.391 59.3953 290.258 52.371L286.7 52.4386ZM321.772 43.7729C321.772 38.3449 320.36 33.7897 317.373 30.2868L314.665 32.5963C316.975 35.3048 318.213 38.9705 318.213 43.7729H321.772ZM317.373 30.2868C314.358 26.7526 310.33 25.0037 305.469 25.0037V28.5625C309.376 28.5625 312.382 29.9192 314.665 32.5963L317.373 30.2868ZM305.469 25.0037C300.69 25.0037 296.577 26.7545 293.231 30.2023L295.784 32.6809C298.467 29.9173 301.661 28.5625 305.469 28.5625V25.0037ZM293.249 30.1833C289.895 33.5382 287.937 38.0485 287.261 43.556L290.793 43.9898C291.396 39.0841 293.092 35.3736 295.766 32.6998L293.249 30.1833ZM289.027 45.5523H319.992V41.9935H289.027V45.5523ZM390.645 68.1615L392.247 67.3872L391.401 65.6372L389.732 66.6338L390.645 68.1615ZM394.618 76.3824L395.568 77.8873L396.912 77.0391L396.22 75.6081L394.618 76.3824ZM349.266 75.4233L347.956 76.6267L347.961 76.6321L347.966 76.6374L349.266 75.4233ZM349.54 26.9201L350.868 28.1048L350.877 28.0947L349.54 26.9201ZM389.412 25.2759L388.106 26.4849L388.115 26.4948L388.125 26.5045L389.412 25.2759ZM394.207 34.0448L392.519 34.6075L392.525 34.6255L392.531 34.6433L394.207 34.0448ZM396.262 47.6093L397.595 48.7891L398.042 48.284V47.6093H396.262ZM392.015 52.4048V54.1842H392.816L393.347 53.5846L392.015 52.4048ZM353.24 52.4048V50.6254H351.426L351.461 52.4386L353.24 52.4048ZM384.753 43.7729V45.5523H386.533V43.7729H384.753ZM380.78 31.4416L382.134 30.2868L380.78 31.4416ZM359.268 31.4416L360.527 32.6998L360.536 32.6904L360.545 32.6809L359.268 31.4416ZM353.788 43.7729L352.022 43.556L351.777 45.5523H353.788V43.7729ZM370.915 75.8326C377.862 75.8326 384.751 73.7542 391.557 69.6892L389.732 66.6338C383.386 70.4243 377.12 72.2737 370.915 72.2737V75.8326ZM389.043 68.9359L393.016 77.1567L396.22 75.6081L392.247 67.3872L389.043 68.9359ZM393.669 74.8775C386.27 79.5459 378.376 81.8648 369.956 81.8648V85.4236C379.073 85.4236 387.621 82.9013 395.568 77.8873L393.669 74.8775ZM369.956 81.8648C361.686 81.8648 355.292 79.2714 350.567 74.2092L347.966 76.6374C353.471 82.5364 360.87 85.4236 369.956 85.4236V81.8648ZM350.577 74.2199C345.861 69.0827 343.373 61.5825 343.373 51.4457H339.814C339.814 62.1352 342.441 70.62 347.956 76.6267L350.577 74.2199ZM343.373 51.4457C343.373 41.3317 345.941 33.6261 350.868 28.1048L348.213 25.7354C342.544 32.0887 339.814 40.7335 339.814 51.4457H343.373ZM350.877 28.0947C355.803 22.4888 362.33 19.6565 370.641 19.6565V16.0977C361.413 16.0977 353.873 19.2941 348.204 25.7455L350.877 28.0947ZM370.641 19.6565C378.19 19.6565 383.937 21.9824 388.106 26.4849L390.717 24.067C385.752 18.7044 378.985 16.0977 370.641 16.0977V19.6565ZM388.125 26.5045C389.798 28.2582 391.288 30.9154 392.519 34.6075L395.895 33.4821C394.568 29.5015 392.861 26.3127 390.699 24.0473L388.125 26.5045ZM392.531 34.6433C393.817 38.2427 394.483 42.5527 394.483 47.6093H398.042C398.042 42.2528 397.338 37.5199 395.883 33.4464L392.531 34.6433ZM394.93 46.4295L390.683 51.225L393.347 53.5846L397.595 48.7891L394.93 46.4295ZM392.015 50.6254H353.24V54.1842H392.015V50.6254ZM351.461 52.4386C351.601 59.8466 353.183 65.7207 356.486 69.7664C359.848 73.8846 364.764 75.8326 370.915 75.8326V72.2737C365.556 72.2737 361.772 70.6136 359.242 67.5157C356.654 64.3453 355.152 59.3953 355.019 52.371L351.461 52.4386ZM386.533 43.7729C386.533 38.3449 385.121 33.7897 382.134 30.2868L379.426 32.5963C381.736 35.3048 382.974 38.9705 382.974 43.7729H386.533ZM382.134 30.2868C379.119 26.7526 375.091 25.0037 370.23 25.0037V28.5625C374.137 28.5625 377.143 29.9192 379.426 32.5963L382.134 30.2868ZM370.23 25.0037C365.451 25.0037 361.338 26.7545 357.992 30.2023L360.545 32.6809C363.228 29.9173 366.422 28.5625 370.23 28.5625V25.0037ZM358.01 30.1833C354.655 33.5382 352.698 38.0485 352.022 43.556L355.554 43.9898C356.156 39.0841 357.853 35.3736 360.527 32.6998L358.01 30.1833ZM353.788 45.5523H384.753V41.9935H353.788V45.5523Z" fill="black" mask="url(#path-1-outside-1_10_495)"/>
<path d="M266.911 76.5293C272.393 92.6671 302.173 105 338.088 105C374.002 105 403.782 92.6671 409.264 76.5293" stroke="black" stroke-width="7.11765"/>
</svg>
