<svg width="403" height="109" viewBox="0 0 403 109" fill="none" xmlns="http://www.w3.org/2000/svg">
<g clip-path="url(#clip0_338_603)">
<path d="M360.787 69.3455C367.364 69.3455 373.94 67.3816 380.517 63.4538L384.491 71.6747C376.818 76.5159 368.597 78.9365 359.828 78.9365C351.15 78.9365 344.254 76.1962 339.139 70.7156C334.023 65.1437 331.466 57.1512 331.466 46.738C331.466 36.3249 334.115 28.1497 339.413 22.2124C344.711 16.1838 351.744 13.1694 360.513 13.1694C368.46 13.1694 374.717 15.6357 379.284 20.5682C381.202 22.5778 382.801 25.5008 384.079 29.3372C385.45 33.1736 386.135 37.6951 386.135 42.9016L381.887 47.6971H343.112C343.386 62.1294 349.278 69.3455 360.787 69.3455ZM374.625 39.0652C374.625 33.95 373.301 29.8396 370.652 26.7339C368.003 23.6282 364.486 22.0754 360.102 22.0754C355.809 22.0754 352.155 23.6282 349.141 26.7339C346.126 29.7482 344.3 33.8587 343.66 39.0652H374.625Z" stroke="white" stroke-width="2"/>
<path d="M296.026 69.3455C302.603 69.3455 309.18 67.3816 315.756 63.4538L319.73 71.6747C312.057 76.5159 303.836 78.9365 295.067 78.9365C286.39 78.9365 279.493 76.1962 274.378 70.7156C269.263 65.1437 266.705 57.1512 266.705 46.738C266.705 36.3249 269.354 28.1497 274.652 22.2124C279.95 16.1838 286.983 13.1694 295.752 13.1694C303.699 13.1694 309.956 15.6357 314.523 20.5682C316.441 22.5778 318.04 25.5008 319.319 29.3372C320.689 33.1736 321.374 37.6951 321.374 42.9016L317.126 47.6971H278.351C278.625 62.1294 284.517 69.3455 296.026 69.3455ZM309.865 39.0652C309.865 33.95 308.54 29.8396 305.891 26.7339C303.242 23.6282 299.726 22.0754 295.341 22.0754C291.048 22.0754 287.394 23.6282 284.38 26.7339C281.366 29.7482 279.539 33.8587 278.899 39.0652H309.865Z" fill="white"/>
<path d="M222.007 69.6195C228.858 69.6195 234.156 67.2902 237.901 62.6317C241.646 57.9732 243.518 52.31 243.518 45.6419C243.518 38.8825 241.874 33.4476 238.586 29.3372C235.389 25.2267 230.958 23.1715 225.295 23.1715C223.103 23.1715 220.5 23.8109 217.485 25.0897C214.471 26.3685 211.776 28.0584 209.402 30.1593V67.1532C213.695 68.7974 217.896 69.6195 222.007 69.6195ZM209.402 108.806H198.029V14.8136H205.428L208.579 21.9384C215.247 16.0924 222.327 13.1694 229.817 13.1694C237.307 13.1694 243.427 16.0924 248.177 21.9384C252.927 27.7843 255.301 35.4115 255.301 44.8198C255.301 54.1368 252.515 62.175 246.944 68.9344C241.463 75.6025 233.607 78.9365 223.377 78.9365C218.81 78.9365 214.151 78.2971 209.402 77.0183V108.806Z" fill="white"/>
<path d="M132.506 13.1694C138.626 13.1694 144.837 14.5396 151.14 17.2799L147.714 25.7748C143.056 23.7652 138.077 22.7605 132.78 22.7605C127.573 22.7605 123.417 24.7243 120.311 28.6521C117.297 32.5799 115.79 38.3345 115.79 45.9159C115.79 53.4974 117.388 59.2977 120.585 63.3168C123.782 67.3359 127.984 69.3455 133.191 69.3455C138.397 69.3455 143.786 68.0667 149.358 65.5091L151.962 74.552C145.568 77.475 139.082 78.9365 132.506 78.9365C124.011 78.9365 117.069 75.8765 111.679 69.7565C106.381 63.5452 103.732 55.5983 103.732 45.9159C103.732 36.1422 106.381 28.2411 111.679 22.2124C117.069 16.1838 124.011 13.1694 132.506 13.1694Z" fill="white"/>
<path d="M68.2928 69.3455C74.8695 69.3455 81.4462 67.3816 88.0229 63.4538L91.9964 71.6747C84.3236 76.5159 76.1027 78.9365 67.3337 78.9365C58.6561 78.9365 51.7597 76.1962 46.6445 70.7156C41.5293 65.1437 38.9717 57.1512 38.9717 46.738C38.9717 36.3249 41.6206 28.1497 46.9185 22.2124C52.2164 16.1838 59.2499 13.1694 68.0188 13.1694C75.9657 13.1694 82.2227 15.6357 86.7898 20.5682C88.708 22.5778 90.3065 25.5008 91.5853 29.3372C92.9555 33.1736 93.6406 37.6951 93.6406 42.9016L89.3931 47.6971H50.6179C50.892 62.1294 56.7836 69.3455 68.2928 69.3455ZM82.1313 39.0652C82.1313 33.95 80.8068 29.8396 78.1579 26.7339C75.5089 23.6282 71.9922 22.0754 67.6078 22.0754C63.3146 22.0754 59.6609 23.6282 56.6466 26.7339C53.6323 29.7482 51.8054 33.8587 51.166 39.0652H82.1313Z" fill="white"/>
<path d="M0 14.8138H7.39879L10.8242 25.775H11.3722C16.3961 19.2896 23.2925 15.3618 32.0614 13.9917L33.2946 24.8159C29.0014 25.0899 24.8453 26.186 20.8262 28.1042C16.8071 30.0224 13.7471 32.58 11.6463 35.777V77.2925H0V14.8138Z" fill="white"/>
<path fill-rule="evenodd" clip-rule="evenodd" d="M254.265 75L253.413 75.2893C256.662 84.8545 266.704 92.509 279.625 97.7311C292.738 103.031 309.627 106.174 327.959 106.174C346.292 106.174 363.18 103.031 376.293 97.7311C389.214 92.509 399.256 84.8545 402.505 75.2893L401.654 75H394.921C391.944 80.892 384.694 86.6588 373.626 91.1321C361.5 96.0331 345.541 99.0564 327.959 99.0564C310.377 99.0564 294.418 96.0331 282.292 91.1321C271.224 86.6588 263.974 80.892 260.997 75H254.265Z" fill="white"/>
<path fill-rule="evenodd" clip-rule="evenodd" d="M165.541 14.814H177.187V77.2927H165.541V14.814Z" fill="white"/>
<path fill-rule="evenodd" clip-rule="evenodd" d="M164.872 0C165.093 3.35058 167.88 6 171.287 6C174.693 6 177.481 3.35058 177.701 0H164.872Z" fill="white"/>
</g>
<defs>
<clipPath id="clip0_338_603">
<rect width="403" height="109" fill="white"/>
</clipPath>
</defs>
</svg>
